<mxfile host="app.diagrams.net" agent="5.0 (Windows NT 10.0; Win64; x64) AppleWebKit/537.36 (KHTML, like Gecko) Chrome/127.0.0.0 Safari/537.36" modified="2024-08-16T03:11:40.339Z" version="20.7.4" etag="DR3isj_Bn6G7Pj5ugYVN" type="github">
  <diagram name="PÃ¡gina-1" id="H2raoFfEWTNbQzU77lgV">
    <mxGraphModel dx="1687" dy="2078" grid="1" gridSize="10" guides="1" tooltips="1" connect="1" arrows="1" fold="1" page="0" pageScale="1" pageWidth="827" pageHeight="1169" math="0" shadow="0">
      <root>
        <mxCell id="0" />
        <mxCell id="1" parent="0" />
        <mxCell id="Cc6nR1Vf2D9WvNNuDAec-107" style="edgeStyle=orthogonalEdgeStyle;rounded=0;orthogonalLoop=1;jettySize=auto;html=1;entryX=1;entryY=0.5;entryDx=0;entryDy=0;" parent="1" source="Cc6nR1Vf2D9WvNNuDAec-1" target="Cc6nR1Vf2D9WvNNuDAec-102" edge="1">
          <mxGeometry relative="1" as="geometry" />
        </mxCell>
        <mxCell id="Cc6nR1Vf2D9WvNNuDAec-1" value="user-service-api" style="rounded=0;whiteSpace=wrap;html=1;" parent="1" vertex="1">
          <mxGeometry x="740" y="-670" width="110" height="60" as="geometry" />
        </mxCell>
        <mxCell id="Cc6nR1Vf2D9WvNNuDAec-2" value="DB" style="shape=cylinder3;whiteSpace=wrap;html=1;boundedLbl=1;backgroundOutline=1;size=15;" parent="1" vertex="1">
          <mxGeometry x="765" y="-820" width="60" height="90" as="geometry" />
        </mxCell>
        <mxCell id="Cc6nR1Vf2D9WvNNuDAec-4" style="edgeStyle=orthogonalEdgeStyle;rounded=0;orthogonalLoop=1;jettySize=auto;html=1;entryX=0.5;entryY=1;entryDx=0;entryDy=0;entryPerimeter=0;" parent="1" source="Cc6nR1Vf2D9WvNNuDAec-1" target="Cc6nR1Vf2D9WvNNuDAec-2" edge="1">
          <mxGeometry relative="1" as="geometry" />
        </mxCell>
        <mxCell id="Cc6nR1Vf2D9WvNNuDAec-53" style="edgeStyle=orthogonalEdgeStyle;rounded=0;orthogonalLoop=1;jettySize=auto;html=1;entryX=0.5;entryY=1;entryDx=0;entryDy=0;curved=1;" parent="1" source="Cc6nR1Vf2D9WvNNuDAec-5" target="Cc6nR1Vf2D9WvNNuDAec-9" edge="1">
          <mxGeometry relative="1" as="geometry">
            <Array as="points">
              <mxPoint x="1100" y="130" />
              <mxPoint x="795" y="130" />
            </Array>
          </mxGeometry>
        </mxCell>
        <mxCell id="Cc6nR1Vf2D9WvNNuDAec-56" value="Admin operations" style="edgeLabel;html=1;align=center;verticalAlign=middle;resizable=0;points=[];" parent="Cc6nR1Vf2D9WvNNuDAec-53" vertex="1" connectable="0">
          <mxGeometry x="-0.6402" y="1" relative="1" as="geometry">
            <mxPoint x="-146" y="334" as="offset" />
          </mxGeometry>
        </mxCell>
        <mxCell id="Cc6nR1Vf2D9WvNNuDAec-54" style="edgeStyle=orthogonalEdgeStyle;rounded=0;orthogonalLoop=1;jettySize=auto;html=1;" parent="1" source="Cc6nR1Vf2D9WvNNuDAec-5" target="Cc6nR1Vf2D9WvNNuDAec-41" edge="1">
          <mxGeometry relative="1" as="geometry">
            <Array as="points">
              <mxPoint x="795" y="-360" />
            </Array>
          </mxGeometry>
        </mxCell>
        <mxCell id="Cc6nR1Vf2D9WvNNuDAec-55" value="Get operations for customers" style="edgeLabel;html=1;align=center;verticalAlign=middle;resizable=0;points=[];" parent="Cc6nR1Vf2D9WvNNuDAec-54" vertex="1" connectable="0">
          <mxGeometry x="-0.4388" y="3" relative="1" as="geometry">
            <mxPoint x="-12" y="7" as="offset" />
          </mxGeometry>
        </mxCell>
        <mxCell id="Cc6nR1Vf2D9WvNNuDAec-68" style="edgeStyle=orthogonalEdgeStyle;rounded=0;orthogonalLoop=1;jettySize=auto;html=1;entryX=0.5;entryY=1;entryDx=0;entryDy=0;curved=1;" parent="1" source="Cc6nR1Vf2D9WvNNuDAec-5" target="Cc6nR1Vf2D9WvNNuDAec-1" edge="1">
          <mxGeometry relative="1" as="geometry">
            <Array as="points">
              <mxPoint x="1095" y="-500" />
              <mxPoint x="795" y="-500" />
            </Array>
          </mxGeometry>
        </mxCell>
        <mxCell id="Cc6nR1Vf2D9WvNNuDAec-70" value="Access validations" style="edgeLabel;html=1;align=center;verticalAlign=middle;resizable=0;points=[];" parent="Cc6nR1Vf2D9WvNNuDAec-68" vertex="1" connectable="0">
          <mxGeometry x="0.3372" y="3" relative="1" as="geometry">
            <mxPoint x="253" y="137" as="offset" />
          </mxGeometry>
        </mxCell>
        <mxCell id="Cc6nR1Vf2D9WvNNuDAec-98" value="Access validations" style="edgeLabel;html=1;align=center;verticalAlign=middle;resizable=0;points=[];" parent="Cc6nR1Vf2D9WvNNuDAec-68" vertex="1" connectable="0">
          <mxGeometry x="-0.0029" y="-1" relative="1" as="geometry">
            <mxPoint x="14" y="-19" as="offset" />
          </mxGeometry>
        </mxCell>
        <mxCell id="Cc6nR1Vf2D9WvNNuDAec-5" value="media-content-api" style="rounded=0;whiteSpace=wrap;html=1;" parent="1" vertex="1">
          <mxGeometry x="1040" y="-390" width="110" height="60" as="geometry" />
        </mxCell>
        <mxCell id="Cc6nR1Vf2D9WvNNuDAec-6" value="DB" style="shape=cylinder3;whiteSpace=wrap;html=1;boundedLbl=1;backgroundOutline=1;size=15;" parent="1" vertex="1">
          <mxGeometry x="1210" y="-405" width="60" height="90" as="geometry" />
        </mxCell>
        <mxCell id="Cc6nR1Vf2D9WvNNuDAec-9" value="" style="shape=image;verticalLabelPosition=bottom;labelBackgroundColor=default;verticalAlign=top;aspect=fixed;imageAspect=0;image=data:image/jpeg,/9j/4AAQSkZJRgABAQAAAQABAAD/2wCEAAkGBxIQDw0PDg0WDQ0NEBATDg8WEBARDQ0NFRIWFhYRFRUYHjQgGBomGxUWITEhJTUrLi4uFx8zODMsNygtMCsBCgoKDg0OGhAQGisgGCArLS0tLSstKysrLSsrKy0tKy0tMCstLS0tLS0rMCstKy0tLystLS0rLS0tKy0rLS0tK//AABEIAOEA4QMBEQACEQEDEQH/xAAbAAEAAgMBAQAAAAAAAAAAAAABAgYEBQcAA//EAEoQAAICAAIFBwcIBwQLAAAAAAABAgMEEQUSEyExBgdBUWFxgSIyQnKRobEUUlNigpKiwhUjM5OywcMXQ9HSFiQ0VGNkc4OjpOL/xAAZAQEAAwEBAAAAAAAAAAAAAAAAAQMEAgX/xAAwEQEAAgECAwUIAgMBAQAAAAAAAQIDBBEhMUESIlFhcRMUUoGRobHwQtEyweHxYv/aAAwDAQACEQMRAD8A1aPBeSUBJEBAQkgKASAoCQCAkBAUElAJAQFAKAkgEBASAgKAQlJAJA8BX0XOCgFASRAQEJICgFEBQEgEBICAoJKASAgKAUBJAKAUAkBAUAoJSQHgK+WuCgFAKAkiAgISQFAKICgJAICQFAKCSgEgICgFASQCAoBICAoBQSQK+WuCAoBQCgJIgICEkBQCiAoCQCAkBQCgkoBICAoBQEkAoBQCQEBQCEq+i1wQEBQCgFASRAYrNpJZye5Jb231JBLd4HkpjLsnHCyhF+lZlUl4S3+xF1dPktyj68FlcN56N5hebi9/tcTXX6sZ2/HVL66G885iPv8A0tjTW6y2tHNzQv2mJtk/q7OCftTLY0NOsz9ncaavWWdXyFwUfOhOfa7Zr+HI79zxeH3d+70S/wBF9Gx41RXffa/jMmNNhjp95/s9ljjof0Doz5lX75/5h7HB4Qezxvf6M6Nlwqg+6+xfCYnTYJ6fc9ljE+RGCl5tco9qtm/i2R7ni8PvJ7CjDu5vaH5mIti+3ZyS/CiudDTpM/ZzOmr0lrcTze2r9liYWdkoSr96bKraG3S0fj+3E6aektPjOSuMqzbw7sivSrasz+yvK9xRfTZa9N/T93VThvHRqJxcW4yTjJcYtNSXemUTG07SrBAUAgSQCgFAJAQECvItcpAICAoDK0do+3ETVdFTtn1LhFdcm90V2s6rS152rG7qtZtO0L9oXm5ispY23Xf0VbcYd0p8X4Zd5tx6KOd5+Ufv9NVNNH8m7s0ho7RycIuuqa3OFcde9v62Wb8ZF83w4eHCPTms7WPHwaPHc5K4YfCt/Wsmo/hjnn7UUW13w1+qu2p8IaLFcucbZwtjSuqFcfjPNme2ryz129P+7qpz3lq79N4qzz8Xa+zazUfup5FU5bzztP1VzktPVhWScnnJuT62837ziePPi55hJdRG0CSXYNg5LqI2gSreq84vVfWtz9xMcOQzqNMYiHmYq2OXRtZ6vsbyO4y3jlafq7i9o6tpheWmNhxuVq6p1xfvjky2uryx139f2HcZ7w3eC5w+CxGG75Vy3/cl/iX11/xV+i2up8YbyrS+AxyUJyhOT4V2xUZp9Udbi/VZojLhzcJ2+a2L478Gs0ryChLOWEsdUuiubcq32KXnLxzKcmhieNJ2/f3xV208fxUrSOjrcPPUvrdcvRfGM11xktzPPvjtSdrQzWrNZ2lio4ckCSAUAgJAQK8i5yUQJIBA2fJ3Q88biIUQeqmnKyfHZ1LLOWXS96S7WizFjnJbsw7x0m9tnUcXjMHofDxhGOTl5lccnffNcZyfxk9y4LoR6VrY8Fdv2W2bUxRs59pvljisU2tf5PS+FVbazX1p8Ze5dhgyam9/KPJlvmtbyhoEZ1KSAQEJICgFEBQEgEBICAhLc6H5TYjDZKFm0qX91POUMuqL4x8N3Yy/HqMmPlO8eErKZbV9F90dpTDaTplVOHlZZ2Uy8+PRrwkuK3+ct6z6Mz0aZMeor2Z+jVW9csbKDyj0NLB3utvWrktaqfTKHU+1cH4PpPMz4ZxW26dGXJTsTs1aKVZAkAoBQCQK8XOSgEgSQF15qbssZdD5+HbT7Yzhu/E/YbNHPfmPJo0096YfbnN0Nar/AJYk7KJwhGbW/YSjuyfVF8c+tvrWbWY7drt9PwnUUnftdFHRjZigFASRAQEJICAogKAkAgJAQFBK1cgtFWWYmGJScKKdbOfBWScXHUj18d/ca9HitN4v0hfgpM27XRm85tudmEh0xhbJ90nFL+FnevnvV+f+nWpnjClmBmKAQJIBQCBXi1yQFAKIFk5vb9TSWG6rFbB9zrk174o0aadssea3BO14dT0tpyjDTprxMtnHEqerNr9SnHVzjN+jnrLe925npXy1pMRbq3WyVrMRPVo9Lcg8LiFtMNL5NKazThlPDyz6dTo+y0ii+kpbjXh+FVtPW3GOCn6R5C42nNxrWIh86uScsu2Msnn3ZmS+lyV5RuotgvHmr2IonU9W2uVUvmzhKEvZJGeYmOfD1UzExzQTCEkQEBCSAgKICgJAfSiqVj1a4Ssl82MXKXsQiJnlxTETPJvdH8jsZbk3UqIv0rJav4VnL2pGimly26beq2uC8+S16K5C0VeXiJvESjvaa1KV3rPN+Ly7DXj0VK8bcfwvrp6xz4t5o7S9Ftk6MNJTVEE5OCWxgs8lFPg/DduNFMtLTNa9PotresztCg84N2tjmvoqq4+O+f5zzdbO+X0hk1E99WzIpICgECSA8BXy5ySAgKA2PJ2/Z4zBz4auIpz9VzSl7mzvHO16z5w6xztaPV0LnZpzwuGsy3wv1e6Mq5P4xRu1sdyJ82vVR3Ynzc/0VpnEYV54e+VS6YZ51t9sH5OfbxMFMlqf4yyVvavKVu0dzl2LJYnDRs651ycJZeq8034o1U1s/wAo+jRXUz1hYMNy7wFy1bJSq1uMbKm14uOa9pfXV4rc+HqtjPSeb6LBaJxPmxw05PjqShXZ46jTJimnvy2+Sezit4IXcgMFLzYzrz+bbJ/x5kTo8XT8onT0Yc+bbD+jibl37KXwijj3GnjP2/pz7tXxl8Jc2sfRxsl31J/mI9xj4ke6x4of2af89/6//wBnPuP/ANfb/qPdfN9Ic20enGSfdUl+Yn3GPiT7tHi+9fNxR6WJtfds4/GLJ9xr4z9v6T7tXxZlPILBx85WWeta1/Akdxo8XXefm6jT0fX9HaLw/nRw8WuG0nGcvxtsn2enpz2+f/U9nFXwRu5Z4GlatcnPL0K6ml4N5R94nV4q8uPp+7E56RyaTH84k3msPhlDqnZJyf3I/wCJRfXT/GPr+/7VW1M9IVfSem8Rif298px+Z5tX3Vufe95jyZb3/wApUWyWtzlcea+nyMXZ86VcPupv86NugrwtP7+8WjTRwmVW5U36+Oxcuq1x+4lD8pk1E75bT5/jgoyzveWrRS4JAQFAICBX0XOCEkgICpteUt0o70+prehvtxHY+cCO10XbOO/LYWR7teOb+7JnqaqN8U/L8vQz8ccuPo8p55AQPED60XSh+znKv1ZOPwJiZjlwTE7cmbXpvFR83G3Ls29uXszO4yXj+U/WXXbt4yyYcp8auGNs8Wn8Ude3y/En2t/F9Fyrxv8Avk/ZD/Ae8Zfi/CfbX8UZcp8a+OMs8Gl8ER7xl+JHtb+L4T03ipccZc+zb2pexM5nJef5T9ZR27eMsW6+U/2k5WetKUvicTMzz4uZmZ5oogKAkAgdR5uqdXA630ttkvZlD8h6uijbFv4zP9N2njajmmIu2llln0k5z+9Jv+Z5Uz2pmfFimd53QRAUAkBAUAgV9FzgoBCSQEDslP8ArGgkvOlLR7XfZCrL+KJ6kb30/n2f9PQjvYfk46meU89JAICAoBQGVo3AzxF1dFKzsseSz3RSyzcm+hJJsmtZvPZjm6rWbTtC+f2arZ/7Y9tlx2a2WfVlnn45m73GNv8ALi1e68OfFRtI4GeHtspuWrZW8nlvi1lmpJ9KaaZhvSaT2Z5stqzWdpY5yggKAUQFASA6tot7DQ8Zrc44Sdi9aUJT+Mj1sc9jT7+W/wDtvr3cXycqR5DAkAoJKASAgIFeRc4SQCgEJJA7Fzb2KzRlcHv1J3Ql3Obll7Jo9TSzvij5t+n443IZ1uDcJedBuL74vJ/A8vbbgwbbcAiBJAICAoCxcgdIQox1crWowshOvXe6MJSyabfRvjl9ov014rkiZ9F2C0VvxdkPXegq/KfkjXjpK+Fzqu1FFSyU6pxWbWa49PFPwZmzaaMs9qJ2lTkwxfj1c80xycxOEzd1Oda/vYeXVl1t8Y/ayPOyYL4+ccPFjvitXm1RU4ICAkBfZx/mJHWOV72Oi7ILohTUu7WjF+7M9fU93DMR5Q35eGNyo8hgJAUAoJKASAgV4ucFASQCgEJdR5or88Pi6+mF8Z+E60v6bN+inuzHm2aWe7MKHyno2eOxsOrEWtdkZSc17pIx5Y2yWjzZskbXn1a1FbgogSQCAgIGV+kLtTZfKLNlllstrZstXq1M8sie1bbbedvWXXanbbdl6G0/iMI/1FzUOmqXlUv7L4d6yZ3jy3x/4z/TqmS1eUr5obnCpsyhi4PDze7XWc6X3+lH3rtNuPWVnhfh+Gmmoif8uDNx/JPBYyO1pyrc96tpcdnJ9sV5L9z7Tu2mxZI3j6w6thpfjH2U3S/IfFUZyrisVWvSrT2mXbW9/gszHk0uSnLjHl/X/rPbBavLirck02mspReTTWTT6mugzKXkBm6Gp2mJwsMs9e+pP1ddZ+7M6xxvesecOqRvaIdc5S6H+WYd0qzZNSUoyyzTaz3SXVvPYzYvaV7O+zfkp267OUaX0RdhJ6l8NXPzJrfXYuuMv5cew8jJitjna0MN6TSdpYRW4JAQFBJQCBXi5wSAoCSAUBfuaG/LEYuvPfZTCeX/AE5tf1DZop70w1aWe9MNVzj0amk739LGqa+4ofGDKtVG2WfNxqI2vKsmdSUAogSQCAgKAUAoDL0fpC3Dy16LpUy6dV7petHhLxzJre1J3rOzqtprylc9Ec4045RxdO0X0leUZ+MHufg13GzHrZj/ADj6NFdTP8oWWNuj9JrJ7O+eXB514mC7OE0u7cad8Ofwn8/2v3x5PNotKc3K3ywmI1equxZrwnHel4Mz30XwT9VVtN8MsDk3yZxNGkMM76Gq4SnJ2Jqde6uWW9cN+XHI4w6fJXLG8cP+OMeK1bxvDdcudP3YS/CbCaXkWSsg1nCyLcVFSXHolvWRdqs1sdq9nzW5sk0mNmx0TpbDaUpnVZWtfL9bRJ5uP14S6Vn6Sya3cCzHkpnrtMfJ1W9csbS57ym0K8He6s9auS1qZvjKGfB/WT3PwfSedmxTjtt06MmSnYnZqilWSAgKCSBXi5wQEgKAkgLXzZYjU0lVH6aq6H4dp/TNGlnbLHmv087ZGy53KMsVhrPpKHH93Nv+od6yO9E+TvVR3olRTGzEBQCiBJAICAoBQCgJIgK964djA32jOV+MoySv20F6Fudi+9nre8vpqclOu/r+7rq5r16r9yS5VPHSshKjZTqipOSnrQlm8urNPj18Dfp9R7XeNttmrFl7fRmaUswFljqxToldBJatjgrIprNJOW/pz3Hd5w2na+2/m6t7OZ2ttu+WD0Ro/DzWIrUKpxTynt5aqTWT3OWXAiuLFSe1HD5oimOs7wpXL7TVeKuqjQ9evDxmtovNnObWer1paq39rMGry1vaOzyhmz3i08OisGVQQEgKA8BXy5yQEBICgNxyQxGz0hgZf8eEf3j2f5izDO2Ss+azFO14XnngozqwVvzLbIffgpf0zXrY4RLTqo4RLmRgYyQEBQCQJIBAQFAICgJIgIHQ+amjycZZ86VUF9lSk/40ehoa/wCU/v7xbNLHCZVXldftMfjJcf1ur9yKh+UyZ53y2nz/ABwUZZ3vLUJdhTsrSQCgJAICQPAV9FzkgICAkD64e/ZzrsXGqcZrvjJS/kTE7Tv4JiduLsHOjSp6NlPjsraZp+tLZ5/+Q9LVxvj39G/Ux3N3HkeY88hJICAoBIEkAgICgFAKAkiB1bmzo1cBrfS3WS9mUPyHqaONse/jP/G/TxtRzDF37Sy2z6Wyc/vScv5nmTO8zPiwzO87vmQFAKICgJAIHgK+i1yUAgICAkDtOk5fKNAym97lgIWv14Vqb98T1Lz2sG/k9C09rDv5OMo8t55QCEkgICgFECSAQEBQCgFAde0M/k+hYTW7Uwllq75RlZ8ZHq457GnifLf/AG9Cndxb+TkcTyXnpBJAUAogKAkB4CvIucJIhJQCAgIHauQb2+h6a5dML6X3Kc4r8OR6en72KI+T0MHexw4tHgs9z6V0pnlw89NAKAQkkBAUAogSQCAgKA83uZE8h2Dlh+o0TbBejXTUl2OUIP3Znraju4Zj0j/T0MvdxuRo8l55AQkgKAUQFAIFeLnBQEiElAICB1zmhv1sFfBv9niZZdkZVwfx1j0NHPcmPNu0s92Y83M9OU7PF4yvLLUxF6XqqyWXuyMOSNrzHnLHeNrT6sJHDlJAKAQkkBAUAogSQCAgZmhqdpicLXlmp30xfquaz92Z1jje8R5w6pG9oh0jnTv1cHTBf3mIjn6sYTfx1T0NbO1Ijxls1M91y5HmsKSICAhJAUAkBArxc4ICBJEJKAQOkczV/l4+tvjGicV3Oak/fE26OeNo9GvSzxmFd5xMI69J4rOLjG5wsreW6cXXFSa+0pLwKNTXbJPmpzxtklXChUUBJAICEkgICgFECSAQLDyBwrs0jhsotxqc5zeW6CUJarf2nFeJfpq75Y8luCN7wsPO1f5eCrz4Rum13uCT90i/XTxrHqu1U8oUBGFkKAkiAgISQFAezIFfLnBAQFASRCSgNlye0zZgsRDEU5NxTjOD3RtqeWtBvo4J59DSe/gd48k0t2odUvNJ3h17CaQ0fpmlVzUbJJZuifk4mmWW9xaef2ovI9GLY80bN8Wx5o2/9VvS3Na98sHit3RXcv6kVw8PEovo/hn6qbaX4Z+qrY/kZj6c9bBysivSrytT7ox8r3Ge2nyR0U2w3jo0uIplW8rYSql1TjKD9kiqYmOfBXPDmgmQhJAISSA5hD6YeuVjyrg7JdUYuT9iEceXFMRvybrA8kcddlq4SUIv0rMqku1qW/2Itrp8luiyuG89Fp0VzaPdLF4nJdNdS4/9yS/l4mmmi+KfovrpfilYsVj8Doip1wUYSazVMPKxFr6HJvf9qW74F83x4I2+3VbNqYo2cr05pezGXzvt3OWShBb411rPKC6+LefS2zzMmSclu1LFe83neWCjhwUAoCSICAhJA8BX0WuCAgICgJIhJQEoyaaaeTi8008nF9afQwLLovl3j6Elt/lEFwjdHafjzU34svrqMleu/qtrnvXrv6rPgedVcMRgmvrV2KWf2ZJZe0urrPGF8arxhuqOcbR9i/WSsqz4xnTKXt2esi2NVjnn+Hcamk803pXQ1++csLJvpsqhF/jiTN8FueyZthtz2eWE0JPh8ifZGyhe5Mjs6efh+xEYZ5bfZP8AQ2h/m4b97D/MT7LD4QnsYvJF4LQsOPyNetZS/iyOxp4+H7I2wx4JR0joanfCWEi+uFdUn+BCL4K8tvsRbDHLZC7nA0fWsq5zsy4RhTOPs10kJ1eKOX4PeMccmoxnOhHhRg5P61lijl9mOeftKra34a/VXOq8IVvSXLfG35rbKiD9GqOo/vtuS8GjPfU5LddvRTbPe3XZXnJttt5tvNt7231t9JnVEBAUAgKAkiAgIS8BX0WuCgEBAQECSISUAgICAkBAUBJAISSAgKAUQJIBAQFAKAUBJEBA8BXy5yUQFAICAgKAkQkoBAQEBICgJIBQCEkgICgFECSAQEBQCAoCSIHgK+XOSAogKAQEBAUBIhJQCAgICQFASQCgEJJAQFAKIEkAgICgFAKASBXy5yQEBRAUAgICAgSRCSgEBAQEgKAkgFAISSAgKAUQJIBAQFAKAQK+i1yQEBICgJAKAQFAKICElASAUAkBQCAoBQEiEkBAUAogKAUAoBQCB//Z;" parent="1" vertex="1">
          <mxGeometry x="752.5" y="-10" width="85" height="85" as="geometry" />
        </mxCell>
        <mxCell id="Cc6nR1Vf2D9WvNNuDAec-50" style="edgeStyle=orthogonalEdgeStyle;rounded=0;orthogonalLoop=1;jettySize=auto;html=1;" parent="1" source="Cc6nR1Vf2D9WvNNuDAec-12" target="Cc6nR1Vf2D9WvNNuDAec-9" edge="1">
          <mxGeometry relative="1" as="geometry" />
        </mxCell>
        <mxCell id="Cc6nR1Vf2D9WvNNuDAec-12" value="Virginia - Region&#xa;Media Cache&#xa;" style="shape=image;verticalLabelPosition=bottom;labelBackgroundColor=default;verticalAlign=top;aspect=fixed;imageAspect=0;image=data:image/jpeg,/9j/4AAQSkZJRgABAQAAAQABAAD/2wCEAAkGBw8QDQ8PDxAPDhAPEBAQDg0PEBAQEg8PGBEXFhURFRYYHSggGBomGxUWIjEhJSorLi4uFx8zODMsNygtLisBCgoKDg0OGhAQGislHyUtLTAtLS0rLS0tLS0rLSstLS0tLS0tLS0tKy0tLS0tLS0tLS0tLS0tLS0tLS0tLS0tLf/AABEIAOEA4QMBEQACEQEDEQH/xAAbAAACAwEBAQAAAAAAAAAAAAAAAQIFBwYEA//EAEIQAAEDAgMFBAgEAwUJAAAAAAEAAgMEEQUGIQcSMUFRE2FxoSIyUoGRscHRFCNCYnKC4RUlM5LwJDRDU5OissLS/8QAGgEBAAMBAQEAAAAAAAAAAAAAAAECAwUEBv/EADERAQACAQMDAwIFBAIDAQAAAAABAgMEBRESITETQVEigTJhcZGxFSMzUkKhQ8HhFP/aAAwDAQACEQMRAD8Ap19k9RoGgEEgUAgaBokKRIFQGgFIaBoBEmgaAQNA0DQSUgQCBoGgYKBoBEqlVUCBoGgaBgoBA0DUpCCQKgNAKQ0DQCJNA0AgaBoGEElIEAgaBoGCgaJU6qokEAgaBoBBIFAIGgalIQSBUBoBSGgaARJoGgEDQNAwgkpAgEDQNAIKhVVNBIIBA0DQCCQKAQNA0SFIkCgagCkNA0AiTQNAIGgaBgoJKQIBA0DQVCqqEDQSCAQNA0AgkCgEDQfSGB7zZjXP/haT8lE2ivmRa0mWK6XVkDrdSWt+ZXnvrMNfNkdcQsGZGrvYaO4uCxncsHyj1KmcjV3stP8AME/qWA9SHkqcqV0Yu6BxHUOYfqta63BbxZPXVVTU0jPXY9v8TSF6a3rbxK3L5KwaJNA0AgYQNAwgkpAgEDQVCqqaAQNBIIBA0DQCC2wXAKmrdaJno85HaNCwzanHhj6pRNoh3uE7PqeMB1Q4zO42BLWj7jxXIy7nkt2p2ZTkn2dLQx0kbtyEQsdbUMDQT8OK8F5y2jm3Kk8+76YlUSRxl8UfbOH6AbEjuUYq1tbi08EOJn2iva4tNKARxDnkEeS6tdqrMc9bT0/zQbtJdzpm/wDUP2U/0mP9v+k+l+b20u0WAn8yKRve2zvmQsr7VePwzCJxSuafHcPq7MLo3nlHK0H56LzW02ow9+J+yvTaHhxPI9JMC6H8lx1u03b8OAWuLcstO1u6YyTHlxGN5XqaW5c3fj5SM1HvXXwa3Hm8TxPw1reJUi9a5oGgEDCBoGEElIEAgqVVUIGgEDQSCAQSaCTYanog0HKuRL7s1YOhbB/9fZcfV7j/AMcX7srX+HR41makoGdk0Bz2j0YI7ADx6BeLDpMuonqnx8yrFZlnuM5wq6kkb5hZqNyMkXHQkcV2cOhxY/bmfzaxSIUcEz2PD2OLHg3DmmxB8V67Vi0cT4Wd3lrPpG7FWajgJxxH8XXxXJ1O2xP1Yv2Z2x/CrzZWNr65rKSMPIu3tGgXlPU9wt5rfR0nT4ZnJP8A8TWOmO65w3ZyN0Gol1I9Rg0HvuvNk3Xv9EKzl+CxLZ3ZpdTy3IHqPFr++6nFuvfi8JjL8udy9QR/2gyCrYQLlpaTaz+V+o4L26nLb0Jvile09uYabPi1FRtEZkjiDR6MbbXt3BcGuDNmnqiJlhxMvLQZuoqiQxBxaToO0AAf3DXVaZNDmxx1cfsmaTCrzLkhkgMtKBG/iYxox3hbgvRpdxtX6cnePlauTjyzmeF0b3MeC1zSQ5p4ghd2totHMNvKKlJoBA0DQMIJKQIKgFVVNAIGgEDQSaLmw1J4BJngapknKLYGtqKht5jZzWOH+Fz+K4Gt1s5J6KeP5Y3vz2h4c4Z4sTBRu14PnB4dzbfNa6Pb+fryx9k1p8s8c8kkk3J1JPMrtRHDUkEgUAg0vZfhrRC+qIBc8ljHW1a0E7w9+nwXD3TLM3jHDLJPfhWZtzjP+IfDTvMTI3Fpe31nOB436LfR6CnRFrxzMprSOO76ZOzhOahkFQ7tGyuDWvd6zXHQa9FGt0FIpN6RxwXpHHMPZtPw9u7FUtFnA7jz+39PmVntWWeZxz4Rin2Z4Su02AKkdnlPOT4S2GpJfFoGyHizp7lytZt8X+rH5Z3x894dRmXL0VdEJYi3td0OZI2xD220BPNc/S6u+nt028fDOtpqyqohdG9zHgtc0kOadCCF9HW0WjmPD0c8oKyTQCBoGgYQO6CnVVUgVIaAQNAINE2b5avasmboP8BpHH9/28Vx9x1X/ir92V7ez67Qs023qOA62IneDw5birt+j5/uX+xSvuzldpqaBoBBY4dg9RUMkfFGXtibdxA8h1P2WOTPjxzEWnyiZiGhbMK5rqR8Gm9E8m3MhxJXG3THMZYv8/8Aplkjvy5bN+W54amSRjHSRSOL2ua0ndueBtwXQ0erpfHFZniYXraOH1yXlyeSqjlex8ccTmv3nAt3iDcAX48FGt1dK45rE8zJe0RHC/2oVjRDFCCN5zt4tvqGi1jbpcFePasczebK447s3BXcbGgFI7DI+ZjA8U8x/KefRcf0O+y5mv0fqR118s7057w6DPmXu3j/ABETbysHpADV7Pv914tv1fp26LeJUx247MxX0Dc0SaAQNA0DQU6qqaCQKkNAILbLGEuq6tkQ9X1pD0YOfy+K8+qzRixzZFp4hqebcXZh9EGxWa8t7OBnQAcfAafFcLSYZ1GXm33Y1jmWNOeSSSSSTck8yvpYjjtDcBAIGgusrYBJWzhouI26yycgOnivNqtTXBXmfPsra3ENPxGupcLpA0ADTdjiHrSHqfuuDjx5NVk5/wC2MRNpZbS47LFVuqot2NznOLmD1CCbltui+gtpq3xenbu36e3DQKHaBRvYO3Donc27rng9+gXGybZlifo7spxz7FiG0GkYz8gOldyBa5gHjcKce2ZZn6+0EY593JV+E19UyWulYQBqGuFju87DjYDVdHHnwYpjDWWkTEdnNr3rpAqA0ACpGo7P8c7eE08hvJEBu3/VHw8vqvn9x03p366+J/lhkrxPLks74N+GqrsFopbuZ0B5t+XxXS0Go9XHxPmGlLcw51e5c0SaAQNA0FQqqhA0EgVIaDVdl2FiOldUuHpSkgX0swG3wNgVwdzy9WToj2Y5J78ONz1i5qa59j6ERMbLG4NjYuHjYLpaHD6eKPmWlI4hzq9ixoJBB6MPo3zzMijF3PcAO7qfcqZMkUrNpJnhslFTwYXQ3cQ0Mbd7ub3n+pXzV7X1WXs88zNpZNj2MSVc7pXnS53Gcmt5BfRafBXDTphvWOIVy2SkCgEGtZDxoVVKYZLGSIbrgR60Z4E+Y9y+d3DT+lk6q+J/lhevE8uDzhg5pKtzQPy5PTjPceI+N119Fn9bHE+8eWtLcwo17F0gVAaD34HiLqapjmb+k+kPabzCyz4oy45rKLRzHDTs5ULarD3Pb6RY3tWFutwBcgeNlwNDknFmiJ9+zCk8SyRfSvQEDRJoBA0FQqqGiQgaD7U0Re9jBxe5rfibKLW6YmSW14rL+Bwo2teGFrB+51gPuvmcUevqP1l547yxFfUPQaCcUbnODWguJ4AC5KiZiI5kdVh2QK6Vu87cg6CQ3JH8t14Mm5YazxHf9FJyRCFTl7EMOkFQxu8I9e2js4C+nA6+StXU4NTHRPv7SRaLdnmzFmmetZGx4DAz1mt4Pf7R+yvptHTDMzCa1iFEvWsaAQSBQW2V8UNLVxyXs0uDZByLCbEnwuvPqsMZcU1/ZFo5ho2fMNFTQ9qwXfEBI08y3n5XXE0GWcWXpn37MaTxLJV9I9AQSBQNQNayDW9tQNY7UxExkHW7QBY/NfObjj6M0zHv3efJHEs0xyjMFVNEddx51631+q72nyepjizes8w8S2SEDRJoBBUqqgQNEhBd5Mpu1xGmYeG+Sfc0n6Lzau/ThtKt/Dv9qk7vwkUTQ4l8oJ3QT6IadPMLlbXWPUm0/DPH5ZvTYLVSepBI73W+a7Vs+OvmzXqgV+EVNOGmeJ0Qd6pdbX4FMefHk/DPJFoloWzLAWNh/FyNBe82ivruttxHfr5Lj7lqJm3px492WS3sjj+0MRTOip4xIGGzpHGwJ/b3KdPtnXXqvPCa4/la5TzdHXXikYI5bG7PWa9vOyw1Witg+qs8wranDidoOCNpqoOjFo5gXADg13MfMrqbfqJy4+LeYaUnmHLL3rmgaBoGg17I1eKrDwx9yY96GS+u8LX+TgF83r8XpZuY9+7C8cSzHHqIwVc0Rt6LyRb2TqPIhd7T5PUx1s2rPMPCtlgpEgVA7vZbVWkniPBzWOaOlt6/0XI3an01syywr9o1PuV9x/xI2vPjcj6LfbL9WHj4lbHPZyy6K5oBEmgLoKhVUSCARJoOr2aNviTO5rj5LwbjP9mVMnhquLYrS026aiRjCblgdxPWy4eLDkyfghjETPhQy7RaBpt+c7vaxtj/ANy9UbZmn4W9OXJ56zTT10cTYRKDG5xO+0AWNuh7l79DpMmCZm3C9KzDuMjPD8Kga02IZuEjiHf6K5mtia6iZlnf8TIMUpXxTyMkBa4PdcHxuCvosV62pEw9ES6LZrRSPxBkrQdyIPL3ctWEDzIXj3LJWMM195UyT2Xu1ecH8PCNXl28PDUW+JXl2qs/Vb2VxqeoyBViFksZbJvRte6M3DwSAd0DnxXpruWPqmtuy3qQ5eqpZInFkjHRuHFrgvfS9bxzWeV+XyVg0Ag7fZdW7tTJCTpI27W/uGpPwC5e64+aRb4Z5I7DahRhlVHK0W7Vnpnq4aDyCbXkmcc1n2Mc9nFrqNDRIUjrdmjv9vt1ieubucf2fuzyeHu2pN/OhPMst5lZbTP0WRi8OHXXamgaARIQVKqoEEkAg6zZk7+8md7HfJeDcf8ADKuTwu9r49OlP7ZB5tXn2nxb7K42dLrtUgVI6rJOavwTyyQF0DzdwHFjvaA/1wXg1uj9aOa+VL15aPJ/ZtaA934efTRx3XEdy40f/ow9o5hl9UPlWY3h9BCQwxNt6sMW7cnwHzVqafPnt35/WSKzZlGNY1JVVRqHaHeBY3iGAWsPILv4cFcWPohvFeI4dZgu0eRu6yqjDxexkj0LR/Dz+K5+ba4nvjlScfw7COWgxOK3oS6cDbfZ9iudMZ9Nb4/hn3q4nMuQpYbyUt5Y9SY/1tHK3teS6mm3Kt/pydpaVyc+XFuBBsdCOIK6kTy0CC4yjUdniFO79+7/AJvR+q82sr1YbQi3h3e1GDepI321ZKNe4tI+q5O1W4yzHzDLH5Zcu+2NA0S6zZoP7wv0if8ARc/c/wDD92eTw9+1J350A/YfmVjtP4LIxOHXWahSGgaAQVCqqaAQSCC+yNUiPE6Zx0Bc4H3sdbzsvLra9WC0K2js7ba3TXpoZfZk3D7wT9Fzdqtxea/kpj8ssXcbGgs8v4U6sqWU7Xbpdcl1t7dA4myyz5ow0m8otPCyzVld+HiMmYS9oSAGtLLWHiVhpdXGomfp44RW3Lnbr2rGgEH3paqSJ4fG4scODmlVvSt44tBMctFyvn4P3YayzXcBPwaem8OXjdcbVbbMfVj/AGZWx/C0zRlCGrYZYbMmtcOFt2TuP3WGl1t8M9NvH8K1vMMqrqOSGR0crSx7eIPzXfx5K3r1VbxPJ4fJuzxO4bsjHX6WcCpyRzSY/Inw07O2JU0uGSBs0TpLRuDA9pcTvNvp4XXC0OLJTPHNZ47saRMSywFd9sEDQdzssp7zzycmNaP8299lyt1vxStWeSezy7TKjermtHBkTQf4t539FptdeMPPzKcfhyYK6LQ0ApDQCCoVVTQNAIPRRT9nLG/2Htd7gdVW9eqswNqzPT/jcKcWDV8TZYx3kX+RK+b01vR1Ec/PDCvaWHhfTPQaDudlFNvVkkn/ACowP81x9FzN0txjiPlnknsltXq96rii5MjDj/EXO+lk2uvGObfmY47OIXUaBA0AgaDrcoZxkpXCKYl8B011MfeO5c/V6GuWOqvaVLU5enPuM09XJHFTMEjxYGYA3cTwY3r/AFVNBgvirNrzxHwilZjy+mD7O5pGtfPIIQdezAu63jyUZt0pWeKRyTkj2ezENmxsTBPew9WQXJPS4tZZ491/3r+yIyfLhq+hlgkMcrSx7eIPzHULq48lcleqs9msTy+AKuBBrGzahMdD2hFjK7eH8FtPqvntzydWXiPZhknuzzMtaJ62eUeq5/o+AFl2tLj9PFWrascQrF6FkgVAaAUhoKhVVCBoGgEGxbNMU7eg7F53nw3YQfYN90e4WC+e3HF0ZeqPEsbxxLOc34SaSuljtZhcXxW4bhOgXY0mb1cUT7+7Ws8wpl6VmkbIG/70edox5uXH3afw/dlkUG0ZxOJy35BoHhZevb/8ELU8OZBXuXNAIGgEDQdzsuwtsk8k723EQAjvw3ze/wBFy90zTWsUj3Z5J7cLTPOcZIJTTUxDXNA7SS1y08bC+nC3xWGh0Nb19TIilOe8qjLWeals7WVL+2je4NJIAcy+gItbmvRqdvxzSZpHEwm1I9nR7ScNZJR/iABvREHeHNh0t5heLbcs1y9HtKuOe/DK19A2erDKN080cLNXPcAFTLkjHSbT7EzxDXcw1TKHDXCP0N1nZQga2cRYL5zT0nPniZ/WWFY6rMaJuSTz1X0zc1KQgkCoDQCkVAKqqaAQNA0HQZIxv8HWsc4ns5PQkHceB+IC8mswerjmPdW0cw0TaHgQq6UTRAOkhBc0j9bCNQOvALk6DUelk6beJZ0niWOr6Fs0TY/KO0q29WxEfF11yN1j6az+rPIqdpsW7iRPtxtcPiR9F6NtnnCtj8OTXvXSBUhoBA0Ag0TZPXC88BIBNnt7zwI8lx91x/huyyR7vFtDy/M2qfUsa6SOaxJaL7jgALWGvLzWu36ms44pM8TCaWjjhSZdwKepqI2tY4NDgXvIIAANzqV6tRqKY6TMyva0RDRs/wBQyHDHRX1kDI2Dmba/+q4u31m+eLfHdjTvLIl9G3aTs0wLdaauQauFogeTeJd8lxNz1PM+nX7sslvZT7Rca7apEDDeOG4NuBfz8eAXp23T9FOufMrY68Ry5BdJc0DUpCCQKgNBTqqpgqQ0AgaBhBq+zXMoliFHM78yMARE/rj4W92i4W46Xpt6lfE+WV6+6j2iZVMEhqoG/kvN5GtGkbutuQ+y9Wg1fXHp28rUt7PNsuqN3EQ29g+N3vIGnzV9yrzh5L+FptdpbSU83tNMfwJP1WG1W+m1fujGzxddqaCQKkNAIGg9OHV0lPMyaI7r2G4PXuPcqZMdclZrbwTHLUMJ2gUkrAKi8L7WdcXYfCy4WXbctZ+juxnHPs9NVnfDoWHsnCQ8mRMtc++ypXb895+qOP1R0TLOszY3PWSiSRpZHr2TNbAde8rs6XT0w16a9592taxD15My26smDnC0EZu93tH2QqazVxhrxHmS9uId7nLHmUVN2cVmyvbuxNaBZjbcbd2i5Gj00579VvHuyrXmWQOcSSTqTxK+khuYKAQNA0SFIaCoVFTQMKQ0DQCD601Q+N7ZI3Fr2m7XA2IKrasWjiRs2UszQ4hAYpg3td20sTgC2QW1IHTuXz2q0tsFuqvj2Y2rw5zFMpuoK2Gsp951O2VrpGi5dGzeBd4iy9ePVxnxTjv+LhaLcxxLoNo1D2+Gue1u86Pdkb1DbjePwuvLt+TozcT7q0niWNL6JuaBoJAqQ0AgaDusmZOiq6R8s++1xeRE4E23bDW19dbrlazW2xZIrX7s734lQMjgpsSDDaohjl3Xb7QA7kbjXgT5L2TN8uDnxMwt3mGpY3l2CtghaLRsYQ5hY0D0CPVHcbrg4NVfDaZ8yxi0wWKYlTYXSNa0AWFooha7jbifumLFk1WTmfvJETaWQ4niMlTM6aVxc5x9wHQdAvo8WKuOsVq9ERw8y0AgkCgEDQNEhBUKqpoGgYKkNA0Ag+1LUvie2SNxY9pu1zTYgqtqxaOJ8DWMpZ8jqA2GptFMbNDv0yH6HuXC1Wgtj+qneGNqceHY1MDZYnxn1ZGOYbdHCx+a59bTW0T8KMHx7A56SVzZI3NZvHs320c2+mvgvqMGemWvMS9EW5Va3WNA0EgVIaD60sDpJGRt1c9zWt8SbBVvaK1mZ9huUFI6mw8QwtLnsiLWN/ef6lfLWvGTN1W+Xm55lzWAZCaH9vWkSSOcX9kNWAk31vx4r3Z9xmY6MXaPlecnwtMy5rp6FnZR7r5QA1sLbWYLaX6Cyw02jvnnqnx8orSZZPiWIy1MrpZnFz3H3AdB0C+gxYq469NW8Rw8q0DQNAIJAoBA0AgqFVU0SaBoGCpDQNAIGCg6nLueKqksxx7eIfocTdo6NPJeHPoMeXvHaVZrEtDwzOWH1bNx7mxl3oujmsAb8gTxXJyaLNinmI5/RlNZh88RyFQT+kxphJ1BiIDT32spx7hmp2nv+qYvMOcrNmEgN4qhrhya5m7b33Xtputf+VVvUV7tnFfy7I/z2Wsbnh/Nb1IDdnNfz7Efzqf6nh/M9SHupNmU5P5s7GD9rd/6hZW3Wkfhqj1HUYDkimpZGzXfJI3gXEbo77Lw59fky16fEKTeZe/F80UdNvCSVpe3jEwhz7+CyxaTLk8R2+URWZcBmDaBPNdlOOwYdN693kePJdfT7bSne/eWlccR5cc55JJJJJ1JPMrpRHDQkEggEDQNAIJAoBAIKlVVCBok0DQMFSGgaAQNA0Fjh2OVVObwzPZfiL3v8VjkwY8n4oRMRK/o9otezR3ZS972uv5ELy323DbxzCs0hYs2nzW1gjJ7rj6rGdqp/semkdp83KBnvJ+6f0qv+x6bxVW0eteLNbDGOoa7e/8AJa12zFHnmU+nCixDMVZUC0s73N5N0AHwXqx6bFj/AA1WisQrCSdTqep1XoiEhA0AgYQSCAQNA0AgkCgEFQCqqmgEDRJoGgYKkNAIGgaAQSCAQNEhA0EgVIaAQNAIGEEkAgaBoBA7oKhVVMFA0AgaJNA0DBUhoBA0DQCCQQCBokIGgkCpDQCBoBA0EggEDQNAIKhVVNAwUDQCBok0DQMFSGgaAQNAIJBAIBEmgaCQKkNAIGgEDQSQCBoBBUKqpoGgYKBoBA0SaBoGCpDQCBoGgEEggEAiTQNBIKQ0AgaAQNBIIBAIKlUVNAKQ0EggEDCJCBoGgkpAEDQCBoGEDQCJg0DQNTIaBoBAwgYQMIGgEH//2Q==;" parent="1" vertex="1">
          <mxGeometry x="755" y="-140" width="80" height="80" as="geometry" />
        </mxCell>
        <mxCell id="Cc6nR1Vf2D9WvNNuDAec-49" style="edgeStyle=orthogonalEdgeStyle;rounded=0;orthogonalLoop=1;jettySize=auto;html=1;entryX=0;entryY=0.5;entryDx=0;entryDy=0;curved=1;exitX=0.5;exitY=1;exitDx=0;exitDy=0;" parent="1" source="Cc6nR1Vf2D9WvNNuDAec-17" target="Cc6nR1Vf2D9WvNNuDAec-9" edge="1">
          <mxGeometry relative="1" as="geometry" />
        </mxCell>
        <mxCell id="Cc6nR1Vf2D9WvNNuDAec-17" value="SÃ£o Paulo - Region&#xa;Media Cache" style="shape=image;verticalLabelPosition=bottom;labelBackgroundColor=default;verticalAlign=top;aspect=fixed;imageAspect=0;image=data:image/jpeg,/9j/4AAQSkZJRgABAQAAAQABAAD/2wCEAAkGBw8QDQ8PDxAPDhAPEBAQDg0PEBAQEg8PGBEXFhURFRYYHSggGBomGxUWIjEhJSorLi4uFx8zODMsNygtLisBCgoKDg0OGhAQGislHyUtLTAtLS0rLS0tLS0rLSstLS0tLS0tLS0tKy0tLS0tLS0tLS0tLS0tLS0tLS0tLS0tLf/AABEIAOEA4QMBEQACEQEDEQH/xAAbAAACAwEBAQAAAAAAAAAAAAAAAQIFBwYEA//EAEIQAAEDAgMFBAgEAwUJAAAAAAEAAgMEEQUGIQcSMUFRE2FxoSIyUoGRscHRFCNCYnKC4RUlM5LwJDRDU5OissLS/8QAGgEBAAMBAQEAAAAAAAAAAAAAAAECAwUEBv/EADERAQACAQMDAwIFBAIDAQAAAAABAgMEBRESITETQVEigTJhcZGxFSMzUkKhQ8HhFP/aAAwDAQACEQMRAD8Ap19k9RoGgEEgUAgaBokKRIFQGgFIaBoBEmgaAQNA0DQSUgQCBoGgYKBoBEqlVUCBoGgaBgoBA0DUpCCQKgNAKQ0DQCJNA0AgaBoGEElIEAgaBoGCgaJU6qokEAgaBoBBIFAIGgalIQSBUBoBSGgaARJoGgEDQNAwgkpAgEDQNAIKhVVNBIIBA0DQCCQKAQNA0SFIkCgagCkNA0AiTQNAIGgaBgoJKQIBA0DQVCqqEDQSCAQNA0AgkCgEDQfSGB7zZjXP/haT8lE2ivmRa0mWK6XVkDrdSWt+ZXnvrMNfNkdcQsGZGrvYaO4uCxncsHyj1KmcjV3stP8AME/qWA9SHkqcqV0Yu6BxHUOYfqta63BbxZPXVVTU0jPXY9v8TSF6a3rbxK3L5KwaJNA0AgYQNAwgkpAgEDQVCqqaAQNBIIBA0DQCC2wXAKmrdaJno85HaNCwzanHhj6pRNoh3uE7PqeMB1Q4zO42BLWj7jxXIy7nkt2p2ZTkn2dLQx0kbtyEQsdbUMDQT8OK8F5y2jm3Kk8+76YlUSRxl8UfbOH6AbEjuUYq1tbi08EOJn2iva4tNKARxDnkEeS6tdqrMc9bT0/zQbtJdzpm/wDUP2U/0mP9v+k+l+b20u0WAn8yKRve2zvmQsr7VePwzCJxSuafHcPq7MLo3nlHK0H56LzW02ow9+J+yvTaHhxPI9JMC6H8lx1u03b8OAWuLcstO1u6YyTHlxGN5XqaW5c3fj5SM1HvXXwa3Hm8TxPw1reJUi9a5oGgEDCBoGEElIEAgqVVUIGgEDQSCAQSaCTYanog0HKuRL7s1YOhbB/9fZcfV7j/AMcX7srX+HR41makoGdk0Bz2j0YI7ADx6BeLDpMuonqnx8yrFZlnuM5wq6kkb5hZqNyMkXHQkcV2cOhxY/bmfzaxSIUcEz2PD2OLHg3DmmxB8V67Vi0cT4Wd3lrPpG7FWajgJxxH8XXxXJ1O2xP1Yv2Z2x/CrzZWNr65rKSMPIu3tGgXlPU9wt5rfR0nT4ZnJP8A8TWOmO65w3ZyN0Gol1I9Rg0HvuvNk3Xv9EKzl+CxLZ3ZpdTy3IHqPFr++6nFuvfi8JjL8udy9QR/2gyCrYQLlpaTaz+V+o4L26nLb0Jvile09uYabPi1FRtEZkjiDR6MbbXt3BcGuDNmnqiJlhxMvLQZuoqiQxBxaToO0AAf3DXVaZNDmxx1cfsmaTCrzLkhkgMtKBG/iYxox3hbgvRpdxtX6cnePlauTjyzmeF0b3MeC1zSQ5p4ghd2totHMNvKKlJoBA0DQMIJKQIKgFVVNAIGgEDQSaLmw1J4BJngapknKLYGtqKht5jZzWOH+Fz+K4Gt1s5J6KeP5Y3vz2h4c4Z4sTBRu14PnB4dzbfNa6Pb+fryx9k1p8s8c8kkk3J1JPMrtRHDUkEgUAg0vZfhrRC+qIBc8ljHW1a0E7w9+nwXD3TLM3jHDLJPfhWZtzjP+IfDTvMTI3Fpe31nOB436LfR6CnRFrxzMprSOO76ZOzhOahkFQ7tGyuDWvd6zXHQa9FGt0FIpN6RxwXpHHMPZtPw9u7FUtFnA7jz+39PmVntWWeZxz4Rin2Z4Su02AKkdnlPOT4S2GpJfFoGyHizp7lytZt8X+rH5Z3x894dRmXL0VdEJYi3td0OZI2xD220BPNc/S6u+nt028fDOtpqyqohdG9zHgtc0kOadCCF9HW0WjmPD0c8oKyTQCBoGgYQO6CnVVUgVIaAQNAINE2b5avasmboP8BpHH9/28Vx9x1X/ir92V7ez67Qs023qOA62IneDw5birt+j5/uX+xSvuzldpqaBoBBY4dg9RUMkfFGXtibdxA8h1P2WOTPjxzEWnyiZiGhbMK5rqR8Gm9E8m3MhxJXG3THMZYv8/8Aplkjvy5bN+W54amSRjHSRSOL2ua0ndueBtwXQ0erpfHFZniYXraOH1yXlyeSqjlex8ccTmv3nAt3iDcAX48FGt1dK45rE8zJe0RHC/2oVjRDFCCN5zt4tvqGi1jbpcFePasczebK447s3BXcbGgFI7DI+ZjA8U8x/KefRcf0O+y5mv0fqR118s7057w6DPmXu3j/ABETbysHpADV7Pv914tv1fp26LeJUx247MxX0Dc0SaAQNA0DQU6qqaCQKkNAILbLGEuq6tkQ9X1pD0YOfy+K8+qzRixzZFp4hqebcXZh9EGxWa8t7OBnQAcfAafFcLSYZ1GXm33Y1jmWNOeSSSSSTck8yvpYjjtDcBAIGgusrYBJWzhouI26yycgOnivNqtTXBXmfPsra3ENPxGupcLpA0ADTdjiHrSHqfuuDjx5NVk5/wC2MRNpZbS47LFVuqot2NznOLmD1CCbltui+gtpq3xenbu36e3DQKHaBRvYO3Donc27rng9+gXGybZlifo7spxz7FiG0GkYz8gOldyBa5gHjcKce2ZZn6+0EY593JV+E19UyWulYQBqGuFju87DjYDVdHHnwYpjDWWkTEdnNr3rpAqA0ACpGo7P8c7eE08hvJEBu3/VHw8vqvn9x03p366+J/lhkrxPLks74N+GqrsFopbuZ0B5t+XxXS0Go9XHxPmGlLcw51e5c0SaAQNA0FQqqhA0EgVIaDVdl2FiOldUuHpSkgX0swG3wNgVwdzy9WToj2Y5J78ONz1i5qa59j6ERMbLG4NjYuHjYLpaHD6eKPmWlI4hzq9ixoJBB6MPo3zzMijF3PcAO7qfcqZMkUrNpJnhslFTwYXQ3cQ0Mbd7ub3n+pXzV7X1WXs88zNpZNj2MSVc7pXnS53Gcmt5BfRafBXDTphvWOIVy2SkCgEGtZDxoVVKYZLGSIbrgR60Z4E+Y9y+d3DT+lk6q+J/lhevE8uDzhg5pKtzQPy5PTjPceI+N119Fn9bHE+8eWtLcwo17F0gVAaD34HiLqapjmb+k+kPabzCyz4oy45rKLRzHDTs5ULarD3Pb6RY3tWFutwBcgeNlwNDknFmiJ9+zCk8SyRfSvQEDRJoBA0FQqqGiQgaD7U0Re9jBxe5rfibKLW6YmSW14rL+Bwo2teGFrB+51gPuvmcUevqP1l547yxFfUPQaCcUbnODWguJ4AC5KiZiI5kdVh2QK6Vu87cg6CQ3JH8t14Mm5YazxHf9FJyRCFTl7EMOkFQxu8I9e2js4C+nA6+StXU4NTHRPv7SRaLdnmzFmmetZGx4DAz1mt4Pf7R+yvptHTDMzCa1iFEvWsaAQSBQW2V8UNLVxyXs0uDZByLCbEnwuvPqsMZcU1/ZFo5ho2fMNFTQ9qwXfEBI08y3n5XXE0GWcWXpn37MaTxLJV9I9AQSBQNQNayDW9tQNY7UxExkHW7QBY/NfObjj6M0zHv3efJHEs0xyjMFVNEddx51631+q72nyepjizes8w8S2SEDRJoBBUqqgQNEhBd5Mpu1xGmYeG+Sfc0n6Lzau/ThtKt/Dv9qk7vwkUTQ4l8oJ3QT6IadPMLlbXWPUm0/DPH5ZvTYLVSepBI73W+a7Vs+OvmzXqgV+EVNOGmeJ0Qd6pdbX4FMefHk/DPJFoloWzLAWNh/FyNBe82ivruttxHfr5Lj7lqJm3px492WS3sjj+0MRTOip4xIGGzpHGwJ/b3KdPtnXXqvPCa4/la5TzdHXXikYI5bG7PWa9vOyw1Witg+qs8wranDidoOCNpqoOjFo5gXADg13MfMrqbfqJy4+LeYaUnmHLL3rmgaBoGg17I1eKrDwx9yY96GS+u8LX+TgF83r8XpZuY9+7C8cSzHHqIwVc0Rt6LyRb2TqPIhd7T5PUx1s2rPMPCtlgpEgVA7vZbVWkniPBzWOaOlt6/0XI3an01syywr9o1PuV9x/xI2vPjcj6LfbL9WHj4lbHPZyy6K5oBEmgLoKhVUSCARJoOr2aNviTO5rj5LwbjP9mVMnhquLYrS026aiRjCblgdxPWy4eLDkyfghjETPhQy7RaBpt+c7vaxtj/ANy9UbZmn4W9OXJ56zTT10cTYRKDG5xO+0AWNuh7l79DpMmCZm3C9KzDuMjPD8Kga02IZuEjiHf6K5mtia6iZlnf8TIMUpXxTyMkBa4PdcHxuCvosV62pEw9ES6LZrRSPxBkrQdyIPL3ctWEDzIXj3LJWMM195UyT2Xu1ecH8PCNXl28PDUW+JXl2qs/Vb2VxqeoyBViFksZbJvRte6M3DwSAd0DnxXpruWPqmtuy3qQ5eqpZInFkjHRuHFrgvfS9bxzWeV+XyVg0Ag7fZdW7tTJCTpI27W/uGpPwC5e64+aRb4Z5I7DahRhlVHK0W7Vnpnq4aDyCbXkmcc1n2Mc9nFrqNDRIUjrdmjv9vt1ieubucf2fuzyeHu2pN/OhPMst5lZbTP0WRi8OHXXamgaARIQVKqoEEkAg6zZk7+8md7HfJeDcf8ADKuTwu9r49OlP7ZB5tXn2nxb7K42dLrtUgVI6rJOavwTyyQF0DzdwHFjvaA/1wXg1uj9aOa+VL15aPJ/ZtaA934efTRx3XEdy40f/ow9o5hl9UPlWY3h9BCQwxNt6sMW7cnwHzVqafPnt35/WSKzZlGNY1JVVRqHaHeBY3iGAWsPILv4cFcWPohvFeI4dZgu0eRu6yqjDxexkj0LR/Dz+K5+ba4nvjlScfw7COWgxOK3oS6cDbfZ9iudMZ9Nb4/hn3q4nMuQpYbyUt5Y9SY/1tHK3teS6mm3Kt/pydpaVyc+XFuBBsdCOIK6kTy0CC4yjUdniFO79+7/AJvR+q82sr1YbQi3h3e1GDepI321ZKNe4tI+q5O1W4yzHzDLH5Zcu+2NA0S6zZoP7wv0if8ARc/c/wDD92eTw9+1J350A/YfmVjtP4LIxOHXWahSGgaAQVCqqaAQSCC+yNUiPE6Zx0Bc4H3sdbzsvLra9WC0K2js7ba3TXpoZfZk3D7wT9Fzdqtxea/kpj8ssXcbGgs8v4U6sqWU7Xbpdcl1t7dA4myyz5ow0m8otPCyzVld+HiMmYS9oSAGtLLWHiVhpdXGomfp44RW3Lnbr2rGgEH3paqSJ4fG4scODmlVvSt44tBMctFyvn4P3YayzXcBPwaem8OXjdcbVbbMfVj/AGZWx/C0zRlCGrYZYbMmtcOFt2TuP3WGl1t8M9NvH8K1vMMqrqOSGR0crSx7eIPzXfx5K3r1VbxPJ4fJuzxO4bsjHX6WcCpyRzSY/Inw07O2JU0uGSBs0TpLRuDA9pcTvNvp4XXC0OLJTPHNZ47saRMSywFd9sEDQdzssp7zzycmNaP8299lyt1vxStWeSezy7TKjermtHBkTQf4t539FptdeMPPzKcfhyYK6LQ0ApDQCCoVVTQNAIPRRT9nLG/2Htd7gdVW9eqswNqzPT/jcKcWDV8TZYx3kX+RK+b01vR1Ec/PDCvaWHhfTPQaDudlFNvVkkn/ACowP81x9FzN0txjiPlnknsltXq96rii5MjDj/EXO+lk2uvGObfmY47OIXUaBA0AgaDrcoZxkpXCKYl8B011MfeO5c/V6GuWOqvaVLU5enPuM09XJHFTMEjxYGYA3cTwY3r/AFVNBgvirNrzxHwilZjy+mD7O5pGtfPIIQdezAu63jyUZt0pWeKRyTkj2ezENmxsTBPew9WQXJPS4tZZ491/3r+yIyfLhq+hlgkMcrSx7eIPzHULq48lcleqs9msTy+AKuBBrGzahMdD2hFjK7eH8FtPqvntzydWXiPZhknuzzMtaJ62eUeq5/o+AFl2tLj9PFWrascQrF6FkgVAaAUhoKhVVCBoGgEGxbNMU7eg7F53nw3YQfYN90e4WC+e3HF0ZeqPEsbxxLOc34SaSuljtZhcXxW4bhOgXY0mb1cUT7+7Ws8wpl6VmkbIG/70edox5uXH3afw/dlkUG0ZxOJy35BoHhZevb/8ELU8OZBXuXNAIGgEDQdzsuwtsk8k723EQAjvw3ze/wBFy90zTWsUj3Z5J7cLTPOcZIJTTUxDXNA7SS1y08bC+nC3xWGh0Nb19TIilOe8qjLWeals7WVL+2je4NJIAcy+gItbmvRqdvxzSZpHEwm1I9nR7ScNZJR/iABvREHeHNh0t5heLbcs1y9HtKuOe/DK19A2erDKN080cLNXPcAFTLkjHSbT7EzxDXcw1TKHDXCP0N1nZQga2cRYL5zT0nPniZ/WWFY6rMaJuSTz1X0zc1KQgkCoDQCkVAKqqaAQNA0HQZIxv8HWsc4ns5PQkHceB+IC8mswerjmPdW0cw0TaHgQq6UTRAOkhBc0j9bCNQOvALk6DUelk6beJZ0niWOr6Fs0TY/KO0q29WxEfF11yN1j6az+rPIqdpsW7iRPtxtcPiR9F6NtnnCtj8OTXvXSBUhoBA0Ag0TZPXC88BIBNnt7zwI8lx91x/huyyR7vFtDy/M2qfUsa6SOaxJaL7jgALWGvLzWu36ms44pM8TCaWjjhSZdwKepqI2tY4NDgXvIIAANzqV6tRqKY6TMyva0RDRs/wBQyHDHRX1kDI2Dmba/+q4u31m+eLfHdjTvLIl9G3aTs0wLdaauQauFogeTeJd8lxNz1PM+nX7sslvZT7Rca7apEDDeOG4NuBfz8eAXp23T9FOufMrY68Ry5BdJc0DUpCCQKgNBTqqpgqQ0AgaBhBq+zXMoliFHM78yMARE/rj4W92i4W46Xpt6lfE+WV6+6j2iZVMEhqoG/kvN5GtGkbutuQ+y9Wg1fXHp28rUt7PNsuqN3EQ29g+N3vIGnzV9yrzh5L+FptdpbSU83tNMfwJP1WG1W+m1fujGzxddqaCQKkNAIGg9OHV0lPMyaI7r2G4PXuPcqZMdclZrbwTHLUMJ2gUkrAKi8L7WdcXYfCy4WXbctZ+juxnHPs9NVnfDoWHsnCQ8mRMtc++ypXb895+qOP1R0TLOszY3PWSiSRpZHr2TNbAde8rs6XT0w16a9592taxD15My26smDnC0EZu93tH2QqazVxhrxHmS9uId7nLHmUVN2cVmyvbuxNaBZjbcbd2i5Gj00579VvHuyrXmWQOcSSTqTxK+khuYKAQNA0SFIaCoVFTQMKQ0DQCD601Q+N7ZI3Fr2m7XA2IKrasWjiRs2UszQ4hAYpg3td20sTgC2QW1IHTuXz2q0tsFuqvj2Y2rw5zFMpuoK2Gsp951O2VrpGi5dGzeBd4iy9ePVxnxTjv+LhaLcxxLoNo1D2+Gue1u86Pdkb1DbjePwuvLt+TozcT7q0niWNL6JuaBoJAqQ0AgaDusmZOiq6R8s++1xeRE4E23bDW19dbrlazW2xZIrX7s734lQMjgpsSDDaohjl3Xb7QA7kbjXgT5L2TN8uDnxMwt3mGpY3l2CtghaLRsYQ5hY0D0CPVHcbrg4NVfDaZ8yxi0wWKYlTYXSNa0AWFooha7jbifumLFk1WTmfvJETaWQ4niMlTM6aVxc5x9wHQdAvo8WKuOsVq9ERw8y0AgkCgEDQNEhBUKqpoGgYKkNA0Ag+1LUvie2SNxY9pu1zTYgqtqxaOJ8DWMpZ8jqA2GptFMbNDv0yH6HuXC1Wgtj+qneGNqceHY1MDZYnxn1ZGOYbdHCx+a59bTW0T8KMHx7A56SVzZI3NZvHs320c2+mvgvqMGemWvMS9EW5Va3WNA0EgVIaD60sDpJGRt1c9zWt8SbBVvaK1mZ9huUFI6mw8QwtLnsiLWN/ef6lfLWvGTN1W+Xm55lzWAZCaH9vWkSSOcX9kNWAk31vx4r3Z9xmY6MXaPlecnwtMy5rp6FnZR7r5QA1sLbWYLaX6Cyw02jvnnqnx8orSZZPiWIy1MrpZnFz3H3AdB0C+gxYq469NW8Rw8q0DQNAIJAoBA0AgqFVU0SaBoGCpDQNAIGCg6nLueKqksxx7eIfocTdo6NPJeHPoMeXvHaVZrEtDwzOWH1bNx7mxl3oujmsAb8gTxXJyaLNinmI5/RlNZh88RyFQT+kxphJ1BiIDT32spx7hmp2nv+qYvMOcrNmEgN4qhrhya5m7b33Xtputf+VVvUV7tnFfy7I/z2Wsbnh/Nb1IDdnNfz7Efzqf6nh/M9SHupNmU5P5s7GD9rd/6hZW3Wkfhqj1HUYDkimpZGzXfJI3gXEbo77Lw59fky16fEKTeZe/F80UdNvCSVpe3jEwhz7+CyxaTLk8R2+URWZcBmDaBPNdlOOwYdN693kePJdfT7bSne/eWlccR5cc55JJJJJ1JPMrpRHDQkEggEDQNAIJAoBAIKlVVCBok0DQMFSGgaAQNA0Fjh2OVVObwzPZfiL3v8VjkwY8n4oRMRK/o9otezR3ZS972uv5ELy323DbxzCs0hYs2nzW1gjJ7rj6rGdqp/semkdp83KBnvJ+6f0qv+x6bxVW0eteLNbDGOoa7e/8AJa12zFHnmU+nCixDMVZUC0s73N5N0AHwXqx6bFj/AA1WisQrCSdTqep1XoiEhA0AgYQSCAQNA0AgkCgEFQCqqmgEDRJoGgYKkNAIGgaAQSCAQNEhA0EgVIaAQNAIGEEkAgaBoBA7oKhVVMFA0AgaJNA0DBUhoBA0DQCCQQCBokIGgkCpDQCBoBA0EggEDQNAIKhVVNAwUDQCBok0DQMFSGgaAQNAIJBAIBEmgaCQKkNAIGgEDQSQCBoBBUKqpoGgYKBoBA0SaBoGCpDQCBoGgEEggEAiTQNBIKQ0AgaAQNBIIBAIKlUVNAKQ0EggEDCJCBoGgkpAEDQCBoGEDQCJg0DQNTIaBoBAwgYQMIGgEH//2Q==;" parent="1" vertex="1">
          <mxGeometry x="600" y="-140" width="80" height="80" as="geometry" />
        </mxCell>
        <mxCell id="Cc6nR1Vf2D9WvNNuDAec-51" style="edgeStyle=orthogonalEdgeStyle;rounded=0;orthogonalLoop=1;jettySize=auto;html=1;entryX=1;entryY=0.5;entryDx=0;entryDy=0;curved=1;exitX=0.5;exitY=1;exitDx=0;exitDy=0;" parent="1" source="Cc6nR1Vf2D9WvNNuDAec-18" target="Cc6nR1Vf2D9WvNNuDAec-9" edge="1">
          <mxGeometry relative="1" as="geometry" />
        </mxCell>
        <mxCell id="Cc6nR1Vf2D9WvNNuDAec-18" value="Paris - Region&#xa;Media Cache&#xa;" style="shape=image;verticalLabelPosition=bottom;labelBackgroundColor=default;verticalAlign=top;aspect=fixed;imageAspect=0;image=data:image/jpeg,/9j/4AAQSkZJRgABAQAAAQABAAD/2wCEAAkGBw8QDQ8PDxAPDhAPEBAQDg0PEBAQEg8PGBEXFhURFRYYHSggGBomGxUWIjEhJSorLi4uFx8zODMsNygtLisBCgoKDg0OGhAQGislHyUtLTAtLS0rLS0tLS0rLSstLS0tLS0tLS0tKy0tLS0tLS0tLS0tLS0tLS0tLS0tLS0tLf/AABEIAOEA4QMBEQACEQEDEQH/xAAbAAACAwEBAQAAAAAAAAAAAAAAAQIFBwYEA//EAEIQAAEDAgMFBAgEAwUJAAAAAAEAAgMEEQUGIQcSMUFRE2FxoSIyUoGRscHRFCNCYnKC4RUlM5LwJDRDU5OissLS/8QAGgEBAAMBAQEAAAAAAAAAAAAAAAECAwUEBv/EADERAQACAQMDAwIFBAIDAQAAAAABAgMEBRESITETQVEigTJhcZGxFSMzUkKhQ8HhFP/aAAwDAQACEQMRAD8Ap19k9RoGgEEgUAgaBokKRIFQGgFIaBoBEmgaAQNA0DQSUgQCBoGgYKBoBEqlVUCBoGgaBgoBA0DUpCCQKgNAKQ0DQCJNA0AgaBoGEElIEAgaBoGCgaJU6qokEAgaBoBBIFAIGgalIQSBUBoBSGgaARJoGgEDQNAwgkpAgEDQNAIKhVVNBIIBA0DQCCQKAQNA0SFIkCgagCkNA0AiTQNAIGgaBgoJKQIBA0DQVCqqEDQSCAQNA0AgkCgEDQfSGB7zZjXP/haT8lE2ivmRa0mWK6XVkDrdSWt+ZXnvrMNfNkdcQsGZGrvYaO4uCxncsHyj1KmcjV3stP8AME/qWA9SHkqcqV0Yu6BxHUOYfqta63BbxZPXVVTU0jPXY9v8TSF6a3rbxK3L5KwaJNA0AgYQNAwgkpAgEDQVCqqaAQNBIIBA0DQCC2wXAKmrdaJno85HaNCwzanHhj6pRNoh3uE7PqeMB1Q4zO42BLWj7jxXIy7nkt2p2ZTkn2dLQx0kbtyEQsdbUMDQT8OK8F5y2jm3Kk8+76YlUSRxl8UfbOH6AbEjuUYq1tbi08EOJn2iva4tNKARxDnkEeS6tdqrMc9bT0/zQbtJdzpm/wDUP2U/0mP9v+k+l+b20u0WAn8yKRve2zvmQsr7VePwzCJxSuafHcPq7MLo3nlHK0H56LzW02ow9+J+yvTaHhxPI9JMC6H8lx1u03b8OAWuLcstO1u6YyTHlxGN5XqaW5c3fj5SM1HvXXwa3Hm8TxPw1reJUi9a5oGgEDCBoGEElIEAgqVVUIGgEDQSCAQSaCTYanog0HKuRL7s1YOhbB/9fZcfV7j/AMcX7srX+HR41makoGdk0Bz2j0YI7ADx6BeLDpMuonqnx8yrFZlnuM5wq6kkb5hZqNyMkXHQkcV2cOhxY/bmfzaxSIUcEz2PD2OLHg3DmmxB8V67Vi0cT4Wd3lrPpG7FWajgJxxH8XXxXJ1O2xP1Yv2Z2x/CrzZWNr65rKSMPIu3tGgXlPU9wt5rfR0nT4ZnJP8A8TWOmO65w3ZyN0Gol1I9Rg0HvuvNk3Xv9EKzl+CxLZ3ZpdTy3IHqPFr++6nFuvfi8JjL8udy9QR/2gyCrYQLlpaTaz+V+o4L26nLb0Jvile09uYabPi1FRtEZkjiDR6MbbXt3BcGuDNmnqiJlhxMvLQZuoqiQxBxaToO0AAf3DXVaZNDmxx1cfsmaTCrzLkhkgMtKBG/iYxox3hbgvRpdxtX6cnePlauTjyzmeF0b3MeC1zSQ5p4ghd2totHMNvKKlJoBA0DQMIJKQIKgFVVNAIGgEDQSaLmw1J4BJngapknKLYGtqKht5jZzWOH+Fz+K4Gt1s5J6KeP5Y3vz2h4c4Z4sTBRu14PnB4dzbfNa6Pb+fryx9k1p8s8c8kkk3J1JPMrtRHDUkEgUAg0vZfhrRC+qIBc8ljHW1a0E7w9+nwXD3TLM3jHDLJPfhWZtzjP+IfDTvMTI3Fpe31nOB436LfR6CnRFrxzMprSOO76ZOzhOahkFQ7tGyuDWvd6zXHQa9FGt0FIpN6RxwXpHHMPZtPw9u7FUtFnA7jz+39PmVntWWeZxz4Rin2Z4Su02AKkdnlPOT4S2GpJfFoGyHizp7lytZt8X+rH5Z3x894dRmXL0VdEJYi3td0OZI2xD220BPNc/S6u+nt028fDOtpqyqohdG9zHgtc0kOadCCF9HW0WjmPD0c8oKyTQCBoGgYQO6CnVVUgVIaAQNAINE2b5avasmboP8BpHH9/28Vx9x1X/ir92V7ez67Qs023qOA62IneDw5birt+j5/uX+xSvuzldpqaBoBBY4dg9RUMkfFGXtibdxA8h1P2WOTPjxzEWnyiZiGhbMK5rqR8Gm9E8m3MhxJXG3THMZYv8/8Aplkjvy5bN+W54amSRjHSRSOL2ua0ndueBtwXQ0erpfHFZniYXraOH1yXlyeSqjlex8ccTmv3nAt3iDcAX48FGt1dK45rE8zJe0RHC/2oVjRDFCCN5zt4tvqGi1jbpcFePasczebK447s3BXcbGgFI7DI+ZjA8U8x/KefRcf0O+y5mv0fqR118s7057w6DPmXu3j/ABETbysHpADV7Pv914tv1fp26LeJUx247MxX0Dc0SaAQNA0DQU6qqaCQKkNAILbLGEuq6tkQ9X1pD0YOfy+K8+qzRixzZFp4hqebcXZh9EGxWa8t7OBnQAcfAafFcLSYZ1GXm33Y1jmWNOeSSSSSTck8yvpYjjtDcBAIGgusrYBJWzhouI26yycgOnivNqtTXBXmfPsra3ENPxGupcLpA0ADTdjiHrSHqfuuDjx5NVk5/wC2MRNpZbS47LFVuqot2NznOLmD1CCbltui+gtpq3xenbu36e3DQKHaBRvYO3Donc27rng9+gXGybZlifo7spxz7FiG0GkYz8gOldyBa5gHjcKce2ZZn6+0EY593JV+E19UyWulYQBqGuFju87DjYDVdHHnwYpjDWWkTEdnNr3rpAqA0ACpGo7P8c7eE08hvJEBu3/VHw8vqvn9x03p366+J/lhkrxPLks74N+GqrsFopbuZ0B5t+XxXS0Go9XHxPmGlLcw51e5c0SaAQNA0FQqqhA0EgVIaDVdl2FiOldUuHpSkgX0swG3wNgVwdzy9WToj2Y5J78ONz1i5qa59j6ERMbLG4NjYuHjYLpaHD6eKPmWlI4hzq9ixoJBB6MPo3zzMijF3PcAO7qfcqZMkUrNpJnhslFTwYXQ3cQ0Mbd7ub3n+pXzV7X1WXs88zNpZNj2MSVc7pXnS53Gcmt5BfRafBXDTphvWOIVy2SkCgEGtZDxoVVKYZLGSIbrgR60Z4E+Y9y+d3DT+lk6q+J/lhevE8uDzhg5pKtzQPy5PTjPceI+N119Fn9bHE+8eWtLcwo17F0gVAaD34HiLqapjmb+k+kPabzCyz4oy45rKLRzHDTs5ULarD3Pb6RY3tWFutwBcgeNlwNDknFmiJ9+zCk8SyRfSvQEDRJoBA0FQqqGiQgaD7U0Re9jBxe5rfibKLW6YmSW14rL+Bwo2teGFrB+51gPuvmcUevqP1l547yxFfUPQaCcUbnODWguJ4AC5KiZiI5kdVh2QK6Vu87cg6CQ3JH8t14Mm5YazxHf9FJyRCFTl7EMOkFQxu8I9e2js4C+nA6+StXU4NTHRPv7SRaLdnmzFmmetZGx4DAz1mt4Pf7R+yvptHTDMzCa1iFEvWsaAQSBQW2V8UNLVxyXs0uDZByLCbEnwuvPqsMZcU1/ZFo5ho2fMNFTQ9qwXfEBI08y3n5XXE0GWcWXpn37MaTxLJV9I9AQSBQNQNayDW9tQNY7UxExkHW7QBY/NfObjj6M0zHv3efJHEs0xyjMFVNEddx51631+q72nyepjizes8w8S2SEDRJoBBUqqgQNEhBd5Mpu1xGmYeG+Sfc0n6Lzau/ThtKt/Dv9qk7vwkUTQ4l8oJ3QT6IadPMLlbXWPUm0/DPH5ZvTYLVSepBI73W+a7Vs+OvmzXqgV+EVNOGmeJ0Qd6pdbX4FMefHk/DPJFoloWzLAWNh/FyNBe82ivruttxHfr5Lj7lqJm3px492WS3sjj+0MRTOip4xIGGzpHGwJ/b3KdPtnXXqvPCa4/la5TzdHXXikYI5bG7PWa9vOyw1Witg+qs8wranDidoOCNpqoOjFo5gXADg13MfMrqbfqJy4+LeYaUnmHLL3rmgaBoGg17I1eKrDwx9yY96GS+u8LX+TgF83r8XpZuY9+7C8cSzHHqIwVc0Rt6LyRb2TqPIhd7T5PUx1s2rPMPCtlgpEgVA7vZbVWkniPBzWOaOlt6/0XI3an01syywr9o1PuV9x/xI2vPjcj6LfbL9WHj4lbHPZyy6K5oBEmgLoKhVUSCARJoOr2aNviTO5rj5LwbjP9mVMnhquLYrS026aiRjCblgdxPWy4eLDkyfghjETPhQy7RaBpt+c7vaxtj/ANy9UbZmn4W9OXJ56zTT10cTYRKDG5xO+0AWNuh7l79DpMmCZm3C9KzDuMjPD8Kga02IZuEjiHf6K5mtia6iZlnf8TIMUpXxTyMkBa4PdcHxuCvosV62pEw9ES6LZrRSPxBkrQdyIPL3ctWEDzIXj3LJWMM195UyT2Xu1ecH8PCNXl28PDUW+JXl2qs/Vb2VxqeoyBViFksZbJvRte6M3DwSAd0DnxXpruWPqmtuy3qQ5eqpZInFkjHRuHFrgvfS9bxzWeV+XyVg0Ag7fZdW7tTJCTpI27W/uGpPwC5e64+aRb4Z5I7DahRhlVHK0W7Vnpnq4aDyCbXkmcc1n2Mc9nFrqNDRIUjrdmjv9vt1ieubucf2fuzyeHu2pN/OhPMst5lZbTP0WRi8OHXXamgaARIQVKqoEEkAg6zZk7+8md7HfJeDcf8ADKuTwu9r49OlP7ZB5tXn2nxb7K42dLrtUgVI6rJOavwTyyQF0DzdwHFjvaA/1wXg1uj9aOa+VL15aPJ/ZtaA934efTRx3XEdy40f/ow9o5hl9UPlWY3h9BCQwxNt6sMW7cnwHzVqafPnt35/WSKzZlGNY1JVVRqHaHeBY3iGAWsPILv4cFcWPohvFeI4dZgu0eRu6yqjDxexkj0LR/Dz+K5+ba4nvjlScfw7COWgxOK3oS6cDbfZ9iudMZ9Nb4/hn3q4nMuQpYbyUt5Y9SY/1tHK3teS6mm3Kt/pydpaVyc+XFuBBsdCOIK6kTy0CC4yjUdniFO79+7/AJvR+q82sr1YbQi3h3e1GDepI321ZKNe4tI+q5O1W4yzHzDLH5Zcu+2NA0S6zZoP7wv0if8ARc/c/wDD92eTw9+1J350A/YfmVjtP4LIxOHXWahSGgaAQVCqqaAQSCC+yNUiPE6Zx0Bc4H3sdbzsvLra9WC0K2js7ba3TXpoZfZk3D7wT9Fzdqtxea/kpj8ssXcbGgs8v4U6sqWU7Xbpdcl1t7dA4myyz5ow0m8otPCyzVld+HiMmYS9oSAGtLLWHiVhpdXGomfp44RW3Lnbr2rGgEH3paqSJ4fG4scODmlVvSt44tBMctFyvn4P3YayzXcBPwaem8OXjdcbVbbMfVj/AGZWx/C0zRlCGrYZYbMmtcOFt2TuP3WGl1t8M9NvH8K1vMMqrqOSGR0crSx7eIPzXfx5K3r1VbxPJ4fJuzxO4bsjHX6WcCpyRzSY/Inw07O2JU0uGSBs0TpLRuDA9pcTvNvp4XXC0OLJTPHNZ47saRMSywFd9sEDQdzssp7zzycmNaP8299lyt1vxStWeSezy7TKjermtHBkTQf4t539FptdeMPPzKcfhyYK6LQ0ApDQCCoVVTQNAIPRRT9nLG/2Htd7gdVW9eqswNqzPT/jcKcWDV8TZYx3kX+RK+b01vR1Ec/PDCvaWHhfTPQaDudlFNvVkkn/ACowP81x9FzN0txjiPlnknsltXq96rii5MjDj/EXO+lk2uvGObfmY47OIXUaBA0AgaDrcoZxkpXCKYl8B011MfeO5c/V6GuWOqvaVLU5enPuM09XJHFTMEjxYGYA3cTwY3r/AFVNBgvirNrzxHwilZjy+mD7O5pGtfPIIQdezAu63jyUZt0pWeKRyTkj2ezENmxsTBPew9WQXJPS4tZZ491/3r+yIyfLhq+hlgkMcrSx7eIPzHULq48lcleqs9msTy+AKuBBrGzahMdD2hFjK7eH8FtPqvntzydWXiPZhknuzzMtaJ62eUeq5/o+AFl2tLj9PFWrascQrF6FkgVAaAUhoKhVVCBoGgEGxbNMU7eg7F53nw3YQfYN90e4WC+e3HF0ZeqPEsbxxLOc34SaSuljtZhcXxW4bhOgXY0mb1cUT7+7Ws8wpl6VmkbIG/70edox5uXH3afw/dlkUG0ZxOJy35BoHhZevb/8ELU8OZBXuXNAIGgEDQdzsuwtsk8k723EQAjvw3ze/wBFy90zTWsUj3Z5J7cLTPOcZIJTTUxDXNA7SS1y08bC+nC3xWGh0Nb19TIilOe8qjLWeals7WVL+2je4NJIAcy+gItbmvRqdvxzSZpHEwm1I9nR7ScNZJR/iABvREHeHNh0t5heLbcs1y9HtKuOe/DK19A2erDKN080cLNXPcAFTLkjHSbT7EzxDXcw1TKHDXCP0N1nZQga2cRYL5zT0nPniZ/WWFY6rMaJuSTz1X0zc1KQgkCoDQCkVAKqqaAQNA0HQZIxv8HWsc4ns5PQkHceB+IC8mswerjmPdW0cw0TaHgQq6UTRAOkhBc0j9bCNQOvALk6DUelk6beJZ0niWOr6Fs0TY/KO0q29WxEfF11yN1j6az+rPIqdpsW7iRPtxtcPiR9F6NtnnCtj8OTXvXSBUhoBA0Ag0TZPXC88BIBNnt7zwI8lx91x/huyyR7vFtDy/M2qfUsa6SOaxJaL7jgALWGvLzWu36ms44pM8TCaWjjhSZdwKepqI2tY4NDgXvIIAANzqV6tRqKY6TMyva0RDRs/wBQyHDHRX1kDI2Dmba/+q4u31m+eLfHdjTvLIl9G3aTs0wLdaauQauFogeTeJd8lxNz1PM+nX7sslvZT7Rca7apEDDeOG4NuBfz8eAXp23T9FOufMrY68Ry5BdJc0DUpCCQKgNBTqqpgqQ0AgaBhBq+zXMoliFHM78yMARE/rj4W92i4W46Xpt6lfE+WV6+6j2iZVMEhqoG/kvN5GtGkbutuQ+y9Wg1fXHp28rUt7PNsuqN3EQ29g+N3vIGnzV9yrzh5L+FptdpbSU83tNMfwJP1WG1W+m1fujGzxddqaCQKkNAIGg9OHV0lPMyaI7r2G4PXuPcqZMdclZrbwTHLUMJ2gUkrAKi8L7WdcXYfCy4WXbctZ+juxnHPs9NVnfDoWHsnCQ8mRMtc++ypXb895+qOP1R0TLOszY3PWSiSRpZHr2TNbAde8rs6XT0w16a9592taxD15My26smDnC0EZu93tH2QqazVxhrxHmS9uId7nLHmUVN2cVmyvbuxNaBZjbcbd2i5Gj00579VvHuyrXmWQOcSSTqTxK+khuYKAQNA0SFIaCoVFTQMKQ0DQCD601Q+N7ZI3Fr2m7XA2IKrasWjiRs2UszQ4hAYpg3td20sTgC2QW1IHTuXz2q0tsFuqvj2Y2rw5zFMpuoK2Gsp951O2VrpGi5dGzeBd4iy9ePVxnxTjv+LhaLcxxLoNo1D2+Gue1u86Pdkb1DbjePwuvLt+TozcT7q0niWNL6JuaBoJAqQ0AgaDusmZOiq6R8s++1xeRE4E23bDW19dbrlazW2xZIrX7s734lQMjgpsSDDaohjl3Xb7QA7kbjXgT5L2TN8uDnxMwt3mGpY3l2CtghaLRsYQ5hY0D0CPVHcbrg4NVfDaZ8yxi0wWKYlTYXSNa0AWFooha7jbifumLFk1WTmfvJETaWQ4niMlTM6aVxc5x9wHQdAvo8WKuOsVq9ERw8y0AgkCgEDQNEhBUKqpoGgYKkNA0Ag+1LUvie2SNxY9pu1zTYgqtqxaOJ8DWMpZ8jqA2GptFMbNDv0yH6HuXC1Wgtj+qneGNqceHY1MDZYnxn1ZGOYbdHCx+a59bTW0T8KMHx7A56SVzZI3NZvHs320c2+mvgvqMGemWvMS9EW5Va3WNA0EgVIaD60sDpJGRt1c9zWt8SbBVvaK1mZ9huUFI6mw8QwtLnsiLWN/ef6lfLWvGTN1W+Xm55lzWAZCaH9vWkSSOcX9kNWAk31vx4r3Z9xmY6MXaPlecnwtMy5rp6FnZR7r5QA1sLbWYLaX6Cyw02jvnnqnx8orSZZPiWIy1MrpZnFz3H3AdB0C+gxYq469NW8Rw8q0DQNAIJAoBA0AgqFVU0SaBoGCpDQNAIGCg6nLueKqksxx7eIfocTdo6NPJeHPoMeXvHaVZrEtDwzOWH1bNx7mxl3oujmsAb8gTxXJyaLNinmI5/RlNZh88RyFQT+kxphJ1BiIDT32spx7hmp2nv+qYvMOcrNmEgN4qhrhya5m7b33Xtputf+VVvUV7tnFfy7I/z2Wsbnh/Nb1IDdnNfz7Efzqf6nh/M9SHupNmU5P5s7GD9rd/6hZW3Wkfhqj1HUYDkimpZGzXfJI3gXEbo77Lw59fky16fEKTeZe/F80UdNvCSVpe3jEwhz7+CyxaTLk8R2+URWZcBmDaBPNdlOOwYdN693kePJdfT7bSne/eWlccR5cc55JJJJJ1JPMrpRHDQkEggEDQNAIJAoBAIKlVVCBok0DQMFSGgaAQNA0Fjh2OVVObwzPZfiL3v8VjkwY8n4oRMRK/o9otezR3ZS972uv5ELy323DbxzCs0hYs2nzW1gjJ7rj6rGdqp/semkdp83KBnvJ+6f0qv+x6bxVW0eteLNbDGOoa7e/8AJa12zFHnmU+nCixDMVZUC0s73N5N0AHwXqx6bFj/AA1WisQrCSdTqep1XoiEhA0AgYQSCAQNA0AgkCgEFQCqqmgEDRJoGgYKkNAIGgaAQSCAQNEhA0EgVIaAQNAIGEEkAgaBoBA7oKhVVMFA0AgaJNA0DBUhoBA0DQCCQQCBokIGgkCpDQCBoBA0EggEDQNAIKhVVNAwUDQCBok0DQMFSGgaAQNAIJBAIBEmgaCQKkNAIGgEDQSQCBoBBUKqpoGgYKBoBA0SaBoGCpDQCBoGgEEggEAiTQNBIKQ0AgaAQNBIIBAIKlUVNAKQ0EggEDCJCBoGgkpAEDQCBoGEDQCJg0DQNTIaBoBAwgYQMIGgEH//2Q==;" parent="1" vertex="1">
          <mxGeometry x="910" y="-140" width="80" height="80" as="geometry" />
        </mxCell>
        <mxCell id="Cc6nR1Vf2D9WvNNuDAec-58" style="edgeStyle=orthogonalEdgeStyle;rounded=0;orthogonalLoop=1;jettySize=auto;html=1;" parent="1" source="Cc6nR1Vf2D9WvNNuDAec-37" target="Cc6nR1Vf2D9WvNNuDAec-41" edge="1">
          <mxGeometry relative="1" as="geometry" />
        </mxCell>
        <mxCell id="Cc6nR1Vf2D9WvNNuDAec-73" value="Retrive vÃ­deos&amp;nbsp;" style="edgeLabel;html=1;align=center;verticalAlign=middle;resizable=0;points=[];" parent="Cc6nR1Vf2D9WvNNuDAec-58" vertex="1" connectable="0">
          <mxGeometry x="-0.5827" y="-1" relative="1" as="geometry">
            <mxPoint x="41" y="9" as="offset" />
          </mxGeometry>
        </mxCell>
        <mxCell id="Cc6nR1Vf2D9WvNNuDAec-79" style="edgeStyle=orthogonalEdgeStyle;rounded=0;orthogonalLoop=1;jettySize=auto;html=1;entryX=0.5;entryY=1;entryDx=0;entryDy=0;curved=1;exitX=0.5;exitY=0;exitDx=0;exitDy=0;" parent="1" source="Cc6nR1Vf2D9WvNNuDAec-37" target="Cc6nR1Vf2D9WvNNuDAec-1" edge="1">
          <mxGeometry relative="1" as="geometry" />
        </mxCell>
        <mxCell id="Cc6nR1Vf2D9WvNNuDAec-80" value="Access validations" style="edgeLabel;html=1;align=center;verticalAlign=middle;resizable=0;points=[];" parent="Cc6nR1Vf2D9WvNNuDAec-79" vertex="1" connectable="0">
          <mxGeometry x="-0.0548" y="-6" relative="1" as="geometry">
            <mxPoint x="19" y="-26" as="offset" />
          </mxGeometry>
        </mxCell>
        <mxCell id="Cc6nR1Vf2D9WvNNuDAec-106" style="edgeStyle=orthogonalEdgeStyle;rounded=0;orthogonalLoop=1;jettySize=auto;html=1;" parent="1" source="Cc6nR1Vf2D9WvNNuDAec-37" target="Cc6nR1Vf2D9WvNNuDAec-102" edge="1">
          <mxGeometry relative="1" as="geometry" />
        </mxCell>
        <mxCell id="Cc6nR1Vf2D9WvNNuDAec-37" value="midia-streaming-api" style="rounded=0;whiteSpace=wrap;html=1;" parent="1" vertex="1">
          <mxGeometry x="430" y="-390" width="130" height="60" as="geometry" />
        </mxCell>
        <mxCell id="Cc6nR1Vf2D9WvNNuDAec-38" value="DB" style="shape=cylinder3;whiteSpace=wrap;html=1;boundedLbl=1;backgroundOutline=1;size=15;" parent="1" vertex="1">
          <mxGeometry x="310" y="-405" width="60" height="90" as="geometry" />
        </mxCell>
        <mxCell id="Cc6nR1Vf2D9WvNNuDAec-47" style="edgeStyle=orthogonalEdgeStyle;rounded=0;orthogonalLoop=1;jettySize=auto;html=1;entryX=0.5;entryY=0;entryDx=0;entryDy=0;" parent="1" source="Cc6nR1Vf2D9WvNNuDAec-41" target="Cc6nR1Vf2D9WvNNuDAec-12" edge="1">
          <mxGeometry relative="1" as="geometry" />
        </mxCell>
        <mxCell id="Cc6nR1Vf2D9WvNNuDAec-48" style="edgeStyle=orthogonalEdgeStyle;rounded=0;orthogonalLoop=1;jettySize=auto;html=1;entryX=0.5;entryY=0;entryDx=0;entryDy=0;curved=1;" parent="1" source="Cc6nR1Vf2D9WvNNuDAec-41" target="Cc6nR1Vf2D9WvNNuDAec-18" edge="1">
          <mxGeometry relative="1" as="geometry" />
        </mxCell>
        <mxCell id="Cc6nR1Vf2D9WvNNuDAec-41" value="" style="sketch=0;outlineConnect=0;fontColor=#232F3E;gradientColor=none;fillColor=#8C4FFF;strokeColor=none;dashed=0;verticalLabelPosition=bottom;verticalAlign=top;align=center;html=1;fontSize=12;fontStyle=0;aspect=fixed;pointerEvents=1;shape=mxgraph.aws4.application_load_balancer;" parent="1" vertex="1">
          <mxGeometry x="756" y="-270" width="78" height="78" as="geometry" />
        </mxCell>
        <mxCell id="Cc6nR1Vf2D9WvNNuDAec-42" style="edgeStyle=orthogonalEdgeStyle;rounded=0;orthogonalLoop=1;jettySize=auto;html=1;entryX=0.425;entryY=0.05;entryDx=0;entryDy=0;entryPerimeter=0;curved=1;" parent="1" source="Cc6nR1Vf2D9WvNNuDAec-41" target="Cc6nR1Vf2D9WvNNuDAec-17" edge="1">
          <mxGeometry relative="1" as="geometry" />
        </mxCell>
        <mxCell id="Cc6nR1Vf2D9WvNNuDAec-65" style="edgeStyle=orthogonalEdgeStyle;rounded=0;orthogonalLoop=1;jettySize=auto;html=1;entryX=1;entryY=0.5;entryDx=0;entryDy=0;entryPerimeter=0;" parent="1" source="Cc6nR1Vf2D9WvNNuDAec-37" target="Cc6nR1Vf2D9WvNNuDAec-38" edge="1">
          <mxGeometry relative="1" as="geometry" />
        </mxCell>
        <mxCell id="Cc6nR1Vf2D9WvNNuDAec-66" style="edgeStyle=orthogonalEdgeStyle;rounded=0;orthogonalLoop=1;jettySize=auto;html=1;entryX=0;entryY=0.5;entryDx=0;entryDy=0;entryPerimeter=0;" parent="1" source="Cc6nR1Vf2D9WvNNuDAec-5" target="Cc6nR1Vf2D9WvNNuDAec-6" edge="1">
          <mxGeometry relative="1" as="geometry" />
        </mxCell>
        <mxCell id="Cc6nR1Vf2D9WvNNuDAec-87" style="edgeStyle=orthogonalEdgeStyle;rounded=0;orthogonalLoop=1;jettySize=auto;html=1;entryX=0;entryY=0.5;entryDx=0;entryDy=0;" parent="1" source="Cc6nR1Vf2D9WvNNuDAec-74" target="Cc6nR1Vf2D9WvNNuDAec-85" edge="1">
          <mxGeometry relative="1" as="geometry">
            <Array as="points">
              <mxPoint x="1300" y="-765" />
              <mxPoint x="1300" y="-590" />
            </Array>
          </mxGeometry>
        </mxCell>
        <mxCell id="Cc6nR1Vf2D9WvNNuDAec-89" style="edgeStyle=orthogonalEdgeStyle;rounded=0;orthogonalLoop=1;jettySize=auto;html=1;entryX=1;entryY=0.5;entryDx=0;entryDy=0;curved=1;" parent="1" source="Cc6nR1Vf2D9WvNNuDAec-74" target="Cc6nR1Vf2D9WvNNuDAec-1" edge="1">
          <mxGeometry relative="1" as="geometry" />
        </mxCell>
        <mxCell id="Cc6nR1Vf2D9WvNNuDAec-108" style="edgeStyle=orthogonalEdgeStyle;rounded=0;orthogonalLoop=1;jettySize=auto;html=1;curved=1;" parent="1" source="Cc6nR1Vf2D9WvNNuDAec-74" edge="1">
          <mxGeometry relative="1" as="geometry">
            <mxPoint x="540" y="-680" as="targetPoint" />
            <Array as="points">
              <mxPoint x="1160" y="-940" />
              <mxPoint x="680" y="-940" />
              <mxPoint x="680" y="-700" />
              <mxPoint x="540" y="-700" />
            </Array>
          </mxGeometry>
        </mxCell>
        <mxCell id="ZA1pRUwkCLUeFnh1QaMM-3" style="edgeStyle=orthogonalEdgeStyle;rounded=0;orthogonalLoop=1;jettySize=auto;html=1;entryX=0;entryY=0.5;entryDx=0;entryDy=0;" edge="1" parent="1" source="Cc6nR1Vf2D9WvNNuDAec-74" target="ZA1pRUwkCLUeFnh1QaMM-1">
          <mxGeometry relative="1" as="geometry">
            <Array as="points">
              <mxPoint x="1300" y="-765" />
              <mxPoint x="1300" y="-957" />
              <mxPoint x="1351" y="-957" />
            </Array>
          </mxGeometry>
        </mxCell>
        <mxCell id="Cc6nR1Vf2D9WvNNuDAec-74" value="subscription-management-api" style="rounded=0;whiteSpace=wrap;html=1;" parent="1" vertex="1">
          <mxGeometry x="1070" y="-795" width="180" height="60" as="geometry" />
        </mxCell>
        <mxCell id="Cc6nR1Vf2D9WvNNuDAec-75" value="DB" style="shape=cylinder3;whiteSpace=wrap;html=1;boundedLbl=1;backgroundOutline=1;size=15;" parent="1" vertex="1">
          <mxGeometry x="1360" y="-810" width="60" height="90" as="geometry" />
        </mxCell>
        <mxCell id="Cc6nR1Vf2D9WvNNuDAec-76" style="edgeStyle=orthogonalEdgeStyle;rounded=0;orthogonalLoop=1;jettySize=auto;html=1;entryX=0;entryY=0.5;entryDx=0;entryDy=0;entryPerimeter=0;exitX=1;exitY=0.5;exitDx=0;exitDy=0;" parent="1" source="Cc6nR1Vf2D9WvNNuDAec-74" target="Cc6nR1Vf2D9WvNNuDAec-75" edge="1">
          <mxGeometry relative="1" as="geometry">
            <mxPoint x="1300" y="-765" as="sourcePoint" />
          </mxGeometry>
        </mxCell>
        <mxCell id="Cc6nR1Vf2D9WvNNuDAec-85" value="CRM Service" style="rounded=0;whiteSpace=wrap;html=1;" parent="1" vertex="1">
          <mxGeometry x="1360" y="-620" width="180" height="60" as="geometry" />
        </mxCell>
        <mxCell id="Cc6nR1Vf2D9WvNNuDAec-92" style="edgeStyle=orthogonalEdgeStyle;rounded=0;orthogonalLoop=1;jettySize=auto;html=1;curved=1;exitX=0.5;exitY=1;exitDx=0;exitDy=0;" parent="1" source="Cc6nR1Vf2D9WvNNuDAec-91" target="Cc6nR1Vf2D9WvNNuDAec-37" edge="1">
          <mxGeometry relative="1" as="geometry" />
        </mxCell>
        <mxCell id="Cc6nR1Vf2D9WvNNuDAec-91" value="content-recomendations-api" style="rounded=0;whiteSpace=wrap;html=1;" parent="1" vertex="1">
          <mxGeometry x="240" y="-575" width="180" height="60" as="geometry" />
        </mxCell>
        <mxCell id="Cc6nR1Vf2D9WvNNuDAec-93" value="DB" style="shape=cylinder3;whiteSpace=wrap;html=1;boundedLbl=1;backgroundOutline=1;size=15;" parent="1" vertex="1">
          <mxGeometry x="120" y="-590" width="60" height="90" as="geometry" />
        </mxCell>
        <mxCell id="Cc6nR1Vf2D9WvNNuDAec-97" style="edgeStyle=orthogonalEdgeStyle;rounded=0;orthogonalLoop=1;jettySize=auto;html=1;entryX=1;entryY=0.5;entryDx=0;entryDy=0;entryPerimeter=0;" parent="1" source="Cc6nR1Vf2D9WvNNuDAec-91" target="Cc6nR1Vf2D9WvNNuDAec-93" edge="1">
          <mxGeometry relative="1" as="geometry" />
        </mxCell>
        <mxCell id="Cc6nR1Vf2D9WvNNuDAec-102" value="logger-service-api" style="rounded=0;whiteSpace=wrap;html=1;strokeColor=default;" parent="1" vertex="1">
          <mxGeometry x="440" y="-670" width="110" height="60" as="geometry" />
        </mxCell>
        <mxCell id="Cc6nR1Vf2D9WvNNuDAec-103" value="DB" style="shape=cylinder3;whiteSpace=wrap;html=1;boundedLbl=1;backgroundOutline=1;size=15;" parent="1" vertex="1">
          <mxGeometry x="465" y="-820" width="60" height="90" as="geometry" />
        </mxCell>
        <mxCell id="Cc6nR1Vf2D9WvNNuDAec-104" style="edgeStyle=orthogonalEdgeStyle;rounded=0;orthogonalLoop=1;jettySize=auto;html=1;entryX=0.5;entryY=1;entryDx=0;entryDy=0;entryPerimeter=0;" parent="1" source="Cc6nR1Vf2D9WvNNuDAec-102" target="Cc6nR1Vf2D9WvNNuDAec-103" edge="1">
          <mxGeometry relative="1" as="geometry" />
        </mxCell>
        <mxCell id="ZA1pRUwkCLUeFnh1QaMM-1" value="Payment Gateway" style="strokeColor=#dddddd;shadow=1;strokeWidth=1;rounded=1;absoluteArcSize=1;arcSize=2;labelPosition=center;verticalLabelPosition=middle;align=center;verticalAlign=bottom;spacingLeft=0;fontColor=#999999;fontSize=12;whiteSpace=wrap;spacingBottom=2;" vertex="1" parent="1">
          <mxGeometry x="1351" y="-1000" width="109" height="85" as="geometry" />
        </mxCell>
        <mxCell id="ZA1pRUwkCLUeFnh1QaMM-2" value="" style="sketch=0;dashed=0;connectable=0;html=1;fillColor=#757575;strokeColor=none;shape=mxgraph.gcp2.payment;part=1;" vertex="1" parent="ZA1pRUwkCLUeFnh1QaMM-1">
          <mxGeometry x="0.5" width="50" height="40" relative="1" as="geometry">
            <mxPoint x="-25" y="15" as="offset" />
          </mxGeometry>
        </mxCell>
      </root>
    </mxGraphModel>
  </diagram>
</mxfile>
